<svg width="60" height="60" viewBox="0 0 60 60" fill="none" xmlns="http://www.w3.org/2000/svg">
<rect width="60" height="60" rx="8" fill="url(#paint0_linear)"/>
<path d="M30.0007 13.332C20.8007 13.332 13.334 20.7987 13.334 29.9987C13.334 39.1987 20.8007 46.6654 30.0007 46.6654C39.2007 46.6654 46.6673 39.1987 46.6673 29.9987C46.6673 20.7987 39.2007 13.332 30.0007 13.332ZM21.784 40.4654C22.5007 38.9654 26.8673 37.4987 30.0007 37.4987C33.134 37.4987 37.5173 38.9654 38.2173 40.4654C35.9507 42.2654 33.1007 43.332 30.0007 43.332C26.9007 43.332 24.0507 42.2654 21.784 40.4654ZM40.6007 38.0487C38.2173 35.1487 32.434 34.1654 30.0007 34.1654C27.5673 34.1654 21.784 35.1487 19.4007 38.0487C17.6301 35.7384 16.6695 32.9094 16.6673 29.9987C16.6673 22.6487 22.6507 16.6654 30.0007 16.6654C37.3507 16.6654 43.334 22.6487 43.334 29.9987C43.334 33.032 42.3007 35.8154 40.6007 38.0487ZM30.0007 19.9987C26.7673 19.9987 24.1673 22.5987 24.1673 25.832C24.1673 29.0654 26.7673 31.6654 30.0007 31.6654C33.234 31.6654 35.834 29.0654 35.834 25.832C35.834 22.5987 33.234 19.9987 30.0007 19.9987ZM30.0007 28.332C28.6173 28.332 27.5007 27.2154 27.5007 25.832C27.5007 24.4487 28.6173 23.332 30.0007 23.332C31.384 23.332 32.5007 24.4487 32.5007 25.832C32.5007 27.2154 31.384 28.332 30.0007 28.332Z" fill="white"/>
<defs>
<linearGradient id="paint0_linear" x1="40.1963" y1="54.6185" x2="13.2" y2="3.6" gradientUnits="userSpaceOnUse">
<stop stop-color="#2C72E5"/>
<stop offset="1" stop-color="#2C72E5" stop-opacity="0.68"/>
</linearGradient>
</defs>
</svg>
