<svg xmlns="http://www.w3.org/2000/svg" width="60" height="61" viewBox="0 0 60 61" fill="none"><rect y="0.5" width="60" height="60" rx="8" fill="url(#paint0_linear)"></rect><path d="M37.5 29.6667H42C42.7956 29.6667 43.5587 29.3506 44.1213 28.788C44.6839 28.2254 45 27.4623 45 26.6667V20.6667C45 19.871 44.6839 19.1079 44.1213 18.5453C43.5587 17.9827 42.7956 17.6667 42 17.6667H37.5C36.7044 17.6667 35.9413 17.9827 35.3787 18.5453C34.8161 19.1079 34.5 19.871 34.5 20.6667V22.1667H25.515V20.6667C25.515 19.871 25.1989 19.1079 24.6363 18.5453C24.0737 17.9827 23.3106 17.6667 22.515 17.6667H18C16.35 17.6667 15 19.0167 15 20.6667V26.6667C15 27.4623 15.3161 28.2254 15.8787 28.788C16.4413 29.3506 17.2044 29.6667 18 29.6667H22.5C23.2956 29.6667 24.0587 29.3506 24.6213 28.788C25.1839 28.2254 25.5 27.4623 25.5 26.6667V25.1667H28.5V35.6817C28.5 38.1567 30.51 40.1667 32.985 40.1667H34.5V41.6667C34.5 42.4623 34.8161 43.2254 35.3787 43.788C35.9413 44.3506 36.7044 44.6667 37.5 44.6667H42C42.7956 44.6667 43.5587 44.3506 44.1213 43.788C44.6839 43.2254 45 42.4623 45 41.6667V35.6667C45 34.871 44.6839 34.1079 44.1213 33.5453C43.5587 32.9827 42.7956 32.6667 42 32.6667H37.5C36.7044 32.6667 35.9413 32.9827 35.3787 33.5453C34.8161 34.1079 34.5 34.871 34.5 35.6667V37.1667H32.985C32.175 37.1667 31.5 36.4917 31.5 35.6817V25.1667H34.5V26.6667C34.5 28.3167 35.85 29.6667 37.5 29.6667Z" fill="white"></path><defs><linearGradient id="paint0_linear" x1="40.1963" y1="55.1185" x2="13.2" y2="4.1" gradientUnits="userSpaceOnUse"><stop stop-color="#2C72E5"></stop><stop offset="1" stop-color="#2C72E5" stop-opacity="0.68"></stop></linearGradient></defs></svg>