<svg xmlns="http://www.w3.org/2000/svg" width="40" height="40" viewBox="0 0 40 40" fill="none"><path d="M35 27.5C35 28.1333 34.65 28.6833 34.1167 28.9667L20.95 36.3667C20.6833 36.5667 20.35 36.6667 20 36.6667C19.65 36.6667 19.3167 36.5667 19.05 36.3667L5.88333 28.9667C5.35 28.6833 5 28.1333 5 27.5V12.5C5 11.8667 5.35 11.3167 5.88333 11.0333L19.05 3.63333C19.3167 3.43333 19.65 3.33333 20 3.33333C20.35 3.33333 20.6833 3.43333 20.95 3.63333L34.1167 11.0333C34.65 11.3167 35 11.8667 35 12.5V27.5ZM20 6.91666L10.0667 12.5L20 18.0833L29.9333 12.5L20 6.91666ZM8.33333 26.5167L18.3333 32.15V20.9667L8.33333 15.35V26.5167ZM31.6667 26.5167V15.35L21.6667 20.9667V32.15L31.6667 26.5167Z" fill="url(#paint0_linear)"></path><defs><linearGradient id="paint0_linear" x1="25.0982" y1="33.677" x2="9.2471" y2="6.71669" gradientUnits="userSpaceOnUse"><stop stop-color="#2C72E5"></stop><stop offset="1" stop-color="#2C72E5" stop-opacity="0.68"></stop></linearGradient></defs></svg>