<svg width="23" height="20" viewBox="0 0 23 20" fill="none" xmlns="http://www.w3.org/2000/svg">
<path d="M13.9378 7.75974C13.7319 7.75974 13.5344 7.68644 13.3888 7.55596C13.2432 7.42549 13.1614 7.24853 13.1614 7.06401C13.1614 6.87949 13.2432 6.70253 13.3888 6.57205C13.5344 6.44157 13.7319 6.36827 13.9378 6.36827C14.1437 6.36827 14.3412 6.44157 14.4868 6.57205C14.6324 6.70253 14.7142 6.87949 14.7142 7.06401C14.7142 7.24853 14.6324 7.42549 14.4868 7.55596C14.3412 7.68644 14.1437 7.75974 13.9378 7.75974ZM9.27942 7.75974C9.0735 7.75974 8.87603 7.68644 8.73042 7.55596C8.58482 7.42549 8.50302 7.24853 8.50302 7.06401C8.50302 6.87949 8.58482 6.70253 8.73042 6.57205C8.87603 6.44157 9.0735 6.36827 9.27942 6.36827C9.48533 6.36827 9.68281 6.44157 9.82841 6.57205C9.97402 6.70253 10.0558 6.87949 10.0558 7.06401C10.0558 7.24853 9.97402 7.42549 9.82841 7.55596C9.68281 7.68644 9.48533 7.75974 9.27942 7.75974ZM14.8074 4.5385L16.4378 3.07746L15.8012 2.5L14.0077 4.10714C13.2856 3.78015 12.4704 3.58534 11.6086 3.58534C10.739 3.58534 9.93159 3.78015 9.20954 4.10714L7.41606 2.5L6.77942 3.07746L8.40985 4.5385C7.05892 5.42208 6.17383 6.84137 6.17383 8.45547V9.15121H17.0434V8.45547C17.0434 6.84137 16.1583 5.42208 14.8074 4.5385ZM6.17383 12.6299C6.17383 15.3154 8.60395 17.5 11.6086 17.5C13.05 17.5 14.4324 16.9869 15.4516 16.0736C16.4708 15.1602 17.0434 13.9215 17.0434 12.6299V9.84694H6.17383V12.6299Z" fill="#C2C2C2"/>
</svg>
