<svg width="22" height="20" viewBox="0 0 22 20" fill="none" xmlns="http://www.w3.org/2000/svg">
<path d="M16.1317 15.6241C15.483 16.5541 14.7952 17.4615 13.7479 17.4765C12.7007 17.499 12.3646 16.884 11.1766 16.884C9.98085 16.884 9.61352 17.4615 8.62094 17.499C7.59711 17.5365 6.82337 16.5091 6.16687 15.6016C4.83041 13.7493 3.80658 10.337 5.18211 8.04213C5.86206 6.90221 7.08128 6.18226 8.40211 6.15976C9.4025 6.14476 10.356 6.81221 10.9734 6.81221C11.583 6.81221 12.7397 6.00977 13.9511 6.12976C14.4591 6.15226 15.8816 6.32475 16.796 7.61466C16.7256 7.65966 15.1 8.5746 15.1157 10.472C15.1391 12.7368 17.1868 13.4943 17.2102 13.5018C17.1868 13.5543 16.882 14.5817 16.1317 15.6241ZM11.669 3.62493C12.2395 3.00247 13.1852 2.53 13.9668 2.5C14.0684 3.37744 13.701 4.26238 13.154 4.89234C12.6147 5.5298 11.7237 6.02477 10.8484 5.95727C10.7311 5.09483 11.1688 4.19489 11.669 3.62493Z" fill="#C2C2C2"/>
</svg>
