<svg width="60" height="60" viewBox="0 0 60 60" fill="none" xmlns="http://www.w3.org/2000/svg">
<rect width="60" height="60" rx="8" fill="url(#paint0_linear)"/>
<path d="M46.1667 40.9997V39.333L48 37.9997C48.1667 37.833 48.3333 37.6663 48.1667 37.4997L46.5 34.6663C46.5 34.4997 46.1667 34.4997 46 34.4997L44 35.333C43.5 34.9997 43 34.6663 42.5 34.4997L42.1667 32.333C42.1667 32.1663 42 31.9997 41.8333 31.9997H38.5C38.1667 31.9997 38 32.1663 38 32.333L37.6667 34.4997C37.1667 34.833 36.8333 34.9997 36.3333 35.333L34.3333 34.4997C34.1667 34.4997 34 34.4997 33.8333 34.6663L32.1667 37.4997C32.1667 37.6663 32.1667 37.833 32.3333 37.9997L34.1667 39.333V40.9997L32.3333 42.333C32.1667 42.4997 32 42.6663 32.1667 42.833L33.8333 45.6663C34 45.833 34.1667 45.833 34.3333 45.833L36.3333 44.9997C36.6667 45.333 37.1667 45.6663 37.6667 45.833L38 47.9997C38.1667 48.1663 38.3333 48.333 38.5 48.333H41.8333C42 48.333 42.1667 48.1663 42.1667 47.9997L42.5 45.833C43 45.4997 43.3333 45.333 43.8333 44.9997L45.8333 45.6663C46 45.6663 46.1667 45.6663 46.3333 45.4997L48 42.6663C48.1667 42.4997 48.1667 42.333 48 42.333L46.1667 40.9997V40.9997ZM40 42.4997C38.6667 42.4997 37.5 41.333 37.5 39.9997C37.5 38.6663 38.6667 37.4997 40 37.4997C41.3333 37.4997 42.5 38.6663 42.5 39.9997C42.5 41.333 41.3333 42.4997 40 42.4997ZM28.8167 43.333H18.3333C17.4493 43.333 16.6014 42.9818 15.9763 42.3567C15.3512 41.7316 15 40.8837 15 39.9997V19.9997C15 19.1156 15.3512 18.2678 15.9763 17.6426C16.6014 17.0175 17.4493 16.6663 18.3333 16.6663H41.6667C42.5507 16.6663 43.3986 17.0175 44.0237 17.6426C44.6488 18.2678 45 19.1156 45 19.9997V29.4663C43.9449 28.9689 42.8214 28.6319 41.6667 28.4663V23.333H18.3333V39.9997H28.3333C28.3333 41.1663 28.5167 42.283 28.8167 43.333V43.333Z" fill="white"/>
<defs>
<linearGradient id="paint0_linear" x1="40.1963" y1="54.6185" x2="13.2" y2="3.6" gradientUnits="userSpaceOnUse">
<stop stop-color="#2C72E5"/>
<stop offset="1" stop-color="#2C72E5" stop-opacity="0.68"/>
</linearGradient>
</defs>
</svg>
