<svg xmlns="http://www.w3.org/2000/svg" width="40" height="40" viewBox="0 0 40 40" fill="none"><path d="M30.3704 30.3333H9.62962V13.8333H30.3704V30.3333ZM25.9259 3.33333V6.33333H14.0741V3.33333H11.1111V6.33333H9.62962C7.98517 6.33333 6.66666 7.66833 6.66666 9.33333V30.3333C6.66666 31.129 6.97882 31.892 7.53449 32.4546C8.09015 33.0173 8.84379 33.3333 9.62962 33.3333H30.3704C31.1562 33.3333 31.9098 33.0173 32.4655 32.4546C33.0212 31.892 33.3333 31.129 33.3333 30.3333V9.33333C33.3333 7.66833 32 6.33333 30.3704 6.33333H28.8889V3.33333" fill="url(#paint0_linear)"></path><defs><linearGradient id="paint0_linear" x1="24.5317" y1="30.6426" x2="10.1802" y2="6.53415" gradientUnits="userSpaceOnUse"><stop stop-color="#2C72E5"></stop><stop offset="1" stop-color="#2C72E5" stop-opacity="0.68"></stop></linearGradient></defs></svg>