<svg xmlns="http://www.w3.org/2000/svg" width="40" height="40" viewBox="0 0 40 40" fill="none"><path d="M33.3327 18.485C33.3327 26.8941 27.6438 34.7577 19.9993 36.6668C12.3549 34.7577 6.66602 26.8941 6.66602 18.485V9.3941L19.9993 3.3335L33.3327 9.3941V18.485ZM19.9993 33.6365C25.5549 32.1214 30.3697 25.3638 30.3697 18.8183V11.3638L19.9993 6.63653L9.62898 11.3638V18.8183C9.62898 25.3638 14.4438 32.1214 19.9993 33.6365ZM19.9993 10.9093C21.1781 10.9093 22.3085 11.3881 23.142 12.2406C23.9755 13.093 24.4438 14.2492 24.4438 15.4547C24.4438 17.4396 23.2142 19.1214 21.4808 19.7426V23.0305H22.9286C23.7654 23.0305 24.4438 23.7088 24.4438 24.5456V24.5456C24.4438 25.3824 23.7654 26.0608 22.9286 26.0608H21.4808V27.6096C21.4808 28.4278 20.8175 29.0911 19.9993 29.0911V29.0911C19.1811 29.0911 18.5179 28.4278 18.5179 27.6096V19.7426C16.7845 19.1214 15.5549 17.4396 15.5549 15.4547C15.5549 14.2492 16.0232 13.093 16.8567 12.2406C17.6901 11.3881 18.8206 10.9093 19.9993 10.9093ZM19.9993 13.9396C19.6064 13.9396 19.2296 14.0992 18.9518 14.3833C18.674 14.6675 18.5179 15.0529 18.5179 15.4547C18.5179 15.8566 18.674 16.2419 18.9518 16.5261C19.2296 16.8102 19.6064 16.9699 19.9993 16.9699C20.3923 16.9699 20.7691 16.8102 21.0469 16.5261C21.3247 16.2419 21.4808 15.8566 21.4808 15.4547C21.4808 15.0529 21.3247 14.6675 21.0469 14.3833C20.7691 14.0992 20.3923 13.9396 19.9993 13.9396Z" fill="url(#paint0_linear)"></path><defs><linearGradient id="paint0_linear" x1="24.531" y1="33.6771" x2="7.83765" y2="8.43895" gradientUnits="userSpaceOnUse"><stop stop-color="#2C72E5"></stop><stop offset="1" stop-color="#2C72E5" stop-opacity="0.68"></stop></linearGradient></defs></svg>