<svg xmlns="http://www.w3.org/2000/svg" width="60" height="61" viewBox="0 0 60 61" fill="none"><rect y="0.5" width="60" height="60" rx="8" fill="url(#paint0_linear)"></rect><path d="M30 20.5C28.7107 20.5 27.4743 21.0122 26.5627 21.9238C25.651 22.8354 25.1389 24.0719 25.1389 25.3611C25.1389 26.6504 25.651 27.8868 26.5627 28.7984C27.4743 29.7101 28.7107 30.2222 30 30.2222C31.2892 30.2222 32.5257 29.7101 33.4373 28.7984C34.3489 27.8868 34.8611 26.6504 34.8611 25.3611C34.8611 24.0719 34.3489 22.8354 33.4373 21.9238C32.5257 21.0122 31.2892 20.5 30 20.5ZM30 23.2778C30.5525 23.2778 31.0824 23.4973 31.4731 23.888C31.8638 24.2787 32.0833 24.8086 32.0833 25.3611C32.0833 25.9136 31.8638 26.4436 31.4731 26.8343C31.0824 27.225 30.5525 27.4444 30 27.4444C29.4474 27.4444 28.9175 27.225 28.5268 26.8343C28.1361 26.4436 27.9166 25.9136 27.9166 25.3611C27.9166 24.8086 28.1361 24.2787 28.5268 23.888C28.9175 23.4973 29.4474 23.2778 30 23.2778ZM20.9722 24.6667C20.0513 24.6667 19.1681 25.0325 18.517 25.6837C17.8658 26.3348 17.5 27.218 17.5 28.1389C17.5 29.4444 18.2361 30.5694 19.2916 31.1667C19.7916 31.4444 20.3611 31.6111 20.9722 31.6111C21.5833 31.6111 22.1528 31.4444 22.6528 31.1667C23.1666 30.875 23.5972 30.4583 23.9166 29.9583C22.9048 28.6397 22.3579 27.0232 22.3611 25.3611V24.9722C21.9444 24.7778 21.4722 24.6667 20.9722 24.6667ZM39.0278 24.6667C38.5278 24.6667 38.0555 24.7778 37.6389 24.9722V25.3611C37.6389 27.0278 37.0972 28.6389 36.0833 29.9583C36.25 30.2222 36.4305 30.4306 36.6389 30.6389C37.2794 31.2599 38.1357 31.6084 39.0278 31.6111C39.6389 31.6111 40.2083 31.4444 40.7083 31.1667C41.7639 30.5694 42.5 29.4444 42.5 28.1389C42.5 27.218 42.1342 26.3348 41.483 25.6837C40.8318 25.0325 39.9486 24.6667 39.0278 24.6667ZM30 33C26.75 33 20.2778 34.625 20.2778 37.8611V39.9444H39.7222V37.8611C39.7222 34.625 33.25 33 30 33ZM19.875 33.7639C17.1944 34.0833 13.3333 35.4444 13.3333 37.8611V39.9444H17.5V37.2639C17.5 35.8611 18.4583 34.6944 19.875 33.7639ZM40.125 33.7639C41.5416 34.6944 42.5 35.8611 42.5 37.2639V39.9444H46.6666V37.8611C46.6666 35.4444 42.8055 34.0833 40.125 33.7639ZM30 35.7778C32.125 35.7778 34.5 36.4722 35.875 37.1667H24.125C25.5 36.4722 27.875 35.7778 30 35.7778Z" fill="white"></path><defs><linearGradient id="paint0_linear" x1="40.1963" y1="55.1185" x2="13.2" y2="4.1" gradientUnits="userSpaceOnUse"><stop stop-color="#2C72E5"></stop><stop offset="1" stop-color="#2C72E5" stop-opacity="0.68"></stop></linearGradient></defs></svg>