<svg width="60" height="60" viewBox="0 0 60 60" fill="none" xmlns="http://www.w3.org/2000/svg">
<rect width="60" height="60" rx="8" fill="url(#paint0_linear)"/>
<path d="M30 45C27.2852 45 24.7754 44.3311 22.4707 42.9932C20.166 41.6553 18.3447 39.834 17.0068 37.5293C15.6689 35.2246 15 32.7148 15 30C15 27.2852 15.6689 24.7754 17.0068 22.4707C18.3447 20.166 20.166 18.3447 22.4707 17.0068C24.7754 15.6689 27.2852 15 30 15C32.7148 15 35.2246 15.6689 37.5293 17.0068C39.834 18.3447 41.6553 20.166 42.9932 22.4707C44.3311 24.7754 45 27.2852 45 30C45 32.7148 44.3311 35.2246 42.9932 37.5293C41.6553 39.834 39.834 41.6553 37.5293 42.9932C35.2246 44.3311 32.7148 45 30 45ZM30 18.75C27.9688 18.75 26.0889 19.2529 24.3604 20.2588C22.6318 21.2646 21.2646 22.6318 20.2588 24.3604C19.2529 26.0889 18.75 27.9688 18.75 30C18.75 32.0312 19.2529 33.9111 20.2588 35.6396C21.2646 37.3682 22.6318 38.7354 24.3604 39.7412C26.0889 40.7471 27.9688 41.25 30 41.25C32.0312 41.25 33.9111 40.7471 35.6396 39.7412C37.3682 38.7354 38.7354 37.3682 39.7412 35.6396C40.7471 33.9111 41.25 32.0312 41.25 30C41.25 27.9688 40.7471 26.0889 39.7412 24.3604C38.7354 22.6318 37.3682 21.2646 35.6396 20.2588C33.9111 19.2529 32.0312 18.75 30 18.75ZM30.0146 33.75C29.4971 33.75 29.0527 33.5645 28.6816 33.1934C28.3105 32.8223 28.125 32.3828 28.125 31.875L26.25 24.375C26.25 23.3398 26.6162 22.4561 27.3486 21.7236C28.0811 20.9912 28.9648 20.625 30 20.625C31.0352 20.625 31.9189 20.9912 32.6514 21.7236C33.3838 22.4561 33.75 23.3398 33.75 24.375L31.875 31.875C31.875 32.3828 31.6943 32.8223 31.333 33.1934C30.9717 33.5645 30.5322 33.75 30.0146 33.75ZM30 35.625C30.5273 35.625 30.9717 35.8057 31.333 36.167C31.6943 36.5283 31.875 36.9678 31.875 37.4854C31.875 38.0029 31.6895 38.4473 31.3184 38.8184C30.9473 39.1895 30.5029 39.375 29.9854 39.375C29.4678 39.375 29.0283 39.1895 28.667 38.8184C28.3057 38.4473 28.125 38.0029 28.125 37.4854C28.125 36.9678 28.3057 36.5283 28.667 36.167C29.0283 35.8057 29.4727 35.625 30 35.625Z" fill="white"/>
<defs>
<linearGradient id="paint0_linear" x1="40.1963" y1="54.6185" x2="13.2" y2="3.6" gradientUnits="userSpaceOnUse">
<stop stop-color="#2C72E5"/>
<stop offset="1" stop-color="#2C72E5" stop-opacity="0.68"/>
</linearGradient>
</defs>
</svg>
