<svg width="16" height="15" viewBox="0 0 16 15" fill="none" xmlns="http://www.w3.org/2000/svg">
<path fill-rule="evenodd" clip-rule="evenodd" d="M0.837418 15C0.374792 15 0 14.6292 0 14.1721V0.827881C0 0.370581 0.374851 0 0.837418 0H14.3353C14.7978 0 15.1727 0.370581 15.1727 0.827881V14.1721C15.1727 14.6293 14.7977 15 14.3353 15H10.4689V9.19116H12.4411L12.7364 6.92737H10.4689V5.48209C10.4689 4.82666 10.653 4.38 11.6037 4.38L12.8163 4.37949V2.35471C12.6065 2.32712 11.8868 2.2655 11.0493 2.2655C9.3011 2.2655 8.10422 3.32047 8.10422 5.25787V6.92737H6.12695V9.19116H8.10422V15H0.837418Z" fill="white"/>
</svg>
