<svg width="57" height="23" viewBox="0 0 57 23" fill="none" xmlns="http://www.w3.org/2000/svg">
<path fill-rule="evenodd" clip-rule="evenodd" d="M31.5557 10.8891C31.1356 8.61969 30.0853 6.97799 28.3115 5.89158C26.9344 5.07073 25.3706 4.73274 23.4801 4.90174C20.5859 5.1673 18.392 6.471 17.0149 8.81283C15.8012 10.8408 15.4745 13.1102 15.9879 15.621C16.4081 17.649 17.4584 19.2665 19.0688 20.4737C20.726 21.7049 22.6165 22.3326 24.6704 22.3326C25.5807 22.3326 25.9308 22.3326 26.9111 22.0912C28.7083 21.6325 30.1553 20.5702 30.6455 20.2322C30.7388 20.184 30.7622 20.0632 30.7388 19.9667C30.5288 19.3631 29.7119 17.48 27.5179 18.7113H27.4946C26.8644 19.0251 26.631 19.17 25.4173 19.2665C23.0833 19.4597 21.2161 18.832 20.6093 17.6973L31.6258 13.9793V14.0518C31.6258 13.9069 31.6491 13.762 31.6724 13.6413C31.6958 13.3275 31.7425 13.0619 31.7191 12.7722C31.6958 12.1204 31.6491 11.4926 31.5557 10.8891ZM22.5698 8.23341C23.0833 8.08855 23.5735 8.01612 24.0403 8.01612C24.5771 8.01612 25.0906 8.11269 25.5574 8.28169C26.771 8.7404 27.658 9.58539 27.9147 10.9374C27.938 11.0822 27.9614 11.5409 27.9614 11.7341L19.4423 14.6553C18.7421 10.7684 20.8893 8.71626 22.5698 8.23341Z" fill="white"/>
<path fill-rule="evenodd" clip-rule="evenodd" d="M12.6036 10.3099L15.0777 7.21965C15.1944 7.05065 15.2644 6.90579 15.2644 6.76094V5.31239C15.2644 4.99853 15.031 4.78125 14.6809 4.78125H0.746881H0.513481V5.2641C0.630181 7.17136 1.91388 8.1612 3.19759 8.1612H9.56942L9.45272 8.30606C8.37908 9.65804 7.25875 11.01 6.18511 12.3137C5.78833 12.7966 5.36821 13.3036 4.97143 13.7864L4.17787 14.7521C2.89417 16.3455 1.54044 17.9872 0.2334 19.6289C0.2334 19.6289 0.21006 19.653 0.18672 19.653C0.1167 19.7255 0 19.8462 0 20.0635V21.3913V21.7776C0 22.0914 0.2334 22.4294 0.583501 22.4294H15.1944V21.9707C15.1944 21.0292 15.1477 20.1359 14.5875 19.6048C13.9107 18.9288 13.1404 18.9771 12.627 19.0012H12.5803C12.5103 19.0012 12.4402 19.0253 12.4169 19.0253H12.3936H5.62495C5.76499 18.8563 5.92837 18.6873 5.99839 18.5666C8.16901 15.8868 10.363 13.1104 12.6036 10.3099Z" fill="white"/>
<path fill-rule="evenodd" clip-rule="evenodd" d="M39.9112 19.0967C39.6078 19.0967 39.3277 19.0726 39.1177 19.0726C37.7873 19.0726 37.4139 18.4449 37.0871 17.0688C36.9704 16.5859 36.9471 16.0789 36.9004 15.5719C36.807 13.9544 36.9471 8.16017 36.9471 8.16017H38.1374C38.2308 8.16017 38.3941 8.16017 38.4642 8.13603C39.8412 7.67732 40.0746 6.37363 40.1213 5.62521V5.04579H36.9471V0.458708C36.9471 0.168998 36.9471 0 36.9004 0C35.1499 0 34.263 0.796703 33.9362 1.1347C33.6794 1.40027 33.5161 1.73826 33.5161 2.02797V8.49817C33.5161 9.31901 33.4927 10.1399 33.4927 10.9366C33.4927 12.023 33.4694 13.1577 33.4694 14.2682V15.0167C33.4694 15.6926 33.4461 16.4169 33.5394 17.0929C33.7261 18.4207 34.0996 19.483 34.6364 20.2073C35.57 21.4386 36.597 22.2111 38.3708 22.2836H38.6976H41.4517C41.8485 19.1692 39.9112 19.0967 39.9112 19.0967Z" fill="white"/>
<path fill-rule="evenodd" clip-rule="evenodd" d="M56.39 11.0574C56.39 10.5745 56.3433 10.1641 56.2733 9.63297C55.8998 7.02558 54.5461 5.38389 52.2821 4.70789C50.4616 4.17676 48.501 4.24919 46.4471 4.94932C45.3735 5.31146 44.4632 5.79431 43.693 6.42201L43.623 6.49444L43.6697 6.59101C44.8133 8.54656 45.957 8.37756 46.3771 8.20856C46.4238 8.18442 46.4938 8.16027 46.5405 8.13613L46.5872 8.11199C47.4974 7.67742 48.3843 7.46014 49.3179 7.41186C50.5783 7.33943 51.5586 7.67743 52.1888 8.35342C52.7956 9.00526 53.0524 9.94682 52.9823 11.1781H52.959C52.8656 11.1781 52.7956 11.1781 52.7023 11.2022C52.7023 11.2022 42.6427 9.65711 42.526 16.7309C42.386 18.445 43.0628 20.0867 44.2765 21.0524C45.4668 21.9698 46.7039 22.4527 48.0342 22.4527C48.9445 22.4527 49.9015 22.2354 50.8817 21.7767C51.932 21.2938 52.6089 20.473 53.3091 19.3624V20.0625C53.3091 20.3764 53.3091 21.7284 56.0632 21.9698L56.46 22.0181C56.39 21.9698 56.39 12.7474 56.39 11.0574ZM49.6447 19.29C48.3143 19.9177 46.5638 19.5555 45.7469 18.4933C44.9534 17.431 45.1167 15.91 46.1204 15.065C46.7739 14.5339 47.5674 14.1959 48.501 14.0993C49.4347 13.9786 50.3683 13.9062 51.3485 13.8338C51.722 13.8096 52.0721 13.7372 52.4455 13.7372L52.4689 13.7613V13.7855C52.6322 16.1032 51.4419 18.445 49.6447 19.29Z" fill="white"/>
</svg>
