<svg width="20" height="20" viewBox="0 0 20 20" fill="none" xmlns="http://www.w3.org/2000/svg">
<path d="M10.3532 2.66797C9.34383 2.66797 8.34435 2.86678 7.41181 3.25305C6.47928 3.63931 5.63196 4.20548 4.91823 4.91921C3.47679 6.36065 2.66699 8.31566 2.66699 10.3542C2.66699 13.7515 4.87293 16.6338 7.92436 17.6561C8.30866 17.7176 8.43164 17.4793 8.43164 17.2718V15.9728C6.30257 16.434 5.84908 14.9428 5.84908 14.9428C5.49551 14.0512 4.99591 13.813 4.99591 13.813C4.29647 13.3364 5.04971 13.3518 5.04971 13.3518C5.81834 13.4056 6.2257 14.1435 6.2257 14.1435C6.8944 15.3118 8.02428 14.9659 8.46239 14.7814C8.53156 14.2818 8.73141 13.9436 8.94662 13.7515C7.24028 13.5593 5.4494 12.8983 5.4494 9.96986C5.4494 9.11669 5.74147 8.43262 6.24108 7.8869C6.16421 7.69475 5.8952 6.89538 6.31794 5.85774C6.31794 5.85774 6.96358 5.65022 8.43164 6.64174C9.03885 6.47264 9.69987 6.38809 10.3532 6.38809C11.0065 6.38809 11.6675 6.47264 12.2747 6.64174C13.7428 5.65022 14.3885 5.85774 14.3885 5.85774C14.8112 6.89538 14.5422 7.69475 14.4653 7.8869C14.9649 8.43262 15.257 9.11669 15.257 9.96986C15.257 12.906 13.4584 13.5516 11.7444 13.7438C12.0211 13.9821 12.2747 14.4509 12.2747 15.1657V17.2718C12.2747 17.4793 12.3977 17.7252 12.7897 17.6561C15.8411 16.6261 18.0394 13.7515 18.0394 10.3542C18.0394 9.3448 17.8406 8.34532 17.4543 7.41279C17.0681 6.48026 16.5019 5.63294 15.7882 4.91921C15.0744 4.20548 14.2271 3.63931 13.2946 3.25305C12.362 2.86678 11.3626 2.66797 10.3532 2.66797Z" fill="#2871EA"/>
</svg>
