<svg width="22" height="14" viewBox="0 0 22 14" fill="none" xmlns="http://www.w3.org/2000/svg">
<path fill-rule="evenodd" clip-rule="evenodd" d="M18.8231 6.09357V3.76813H17.1908V6.09357H14.8404V7.75458H17.1908V10.1465H18.8231V7.75458H21.1083V6.09357H18.8231ZM6.94012 5.96069V8.61832C6.94012 8.61832 9.47368 8.61487 10.5053 8.61487C9.94665 10.3377 9.07802 11.276 6.94012 11.276C4.77657 11.276 3.08795 9.49114 3.08795 7.28949C3.08795 5.08784 4.77657 3.30304 6.94012 3.30304C8.08403 3.30304 8.8228 3.71221 9.50046 4.28247C10.0429 3.73048 9.99757 3.65179 11.3776 2.32556C10.2061 1.24045 8.64906 0.578979 6.94012 0.578979C3.29812 0.578979 0.345703 3.58335 0.345703 7.28949C0.345703 10.9956 3.29812 14 6.94012 14C12.3839 14 13.7145 9.17643 13.2734 5.96069H6.94012Z" fill="white"/>
</svg>
