<svg width="230" height="25" viewBox="0 0 230 25" fill="none" xmlns="http://www.w3.org/2000/svg">
<path d="M38.1378 20H40.9055V14.5923H46.2301V12.3104H40.9055V9.19105H46.8054V6.90909H38.1378V20ZM54.2969 15.8196C54.3033 17.1364 53.402 17.8267 52.424 17.8267C51.3949 17.8267 50.7301 17.1044 50.7237 15.9474V10.1818H48.0007V16.4332C48.0071 18.728 49.3494 20.1278 51.3246 20.1278C52.8011 20.1278 53.8622 19.3672 54.3033 18.2166H54.4055V20H57.0199V10.1818H54.2969V15.8196ZM67.367 12.9815C67.1241 11.1726 65.6667 10.054 63.1866 10.054C60.6745 10.054 59.019 11.2173 59.0254 13.1094C59.019 14.5795 59.9458 15.532 61.8635 15.9155L63.5637 16.2543C64.4203 16.4268 64.8102 16.7401 64.823 17.2322C64.8102 17.8139 64.1774 18.2294 63.225 18.2294C62.2534 18.2294 61.6078 17.8139 61.4416 17.0149L58.7633 17.1555C59.019 19.0348 60.617 20.1918 63.2186 20.1918C65.7626 20.1918 67.5843 18.8942 67.5907 16.9574C67.5843 15.5384 66.6575 14.6882 64.7527 14.2983L62.9757 13.9403C62.0616 13.7422 61.7228 13.429 61.7292 12.956C61.7228 12.3679 62.3876 11.9844 63.2314 11.9844C64.1774 11.9844 64.7399 12.5021 64.8741 13.1349L67.367 12.9815ZM69.3054 20H72.0284V10.1818H69.3054V20ZM70.6733 8.91619C71.4851 8.91619 72.1499 8.29616 72.1499 7.53551C72.1499 6.78125 71.4851 6.16122 70.6733 6.16122C69.8679 6.16122 69.2031 6.78125 69.2031 7.53551C69.2031 8.29616 69.8679 8.91619 70.6733 8.91619ZM78.6458 20.1918C81.6245 20.1918 83.4782 18.1527 83.4782 15.1293C83.4782 12.0866 81.6245 10.054 78.6458 10.054C75.6671 10.054 73.8134 12.0866 73.8134 15.1293C73.8134 18.1527 75.6671 20.1918 78.6458 20.1918ZM78.6586 18.0824C77.2843 18.0824 76.5811 16.8232 76.5811 15.1101C76.5811 13.397 77.2843 12.1314 78.6586 12.1314C80.0073 12.1314 80.7104 13.397 80.7104 15.1101C80.7104 16.8232 80.0073 18.0824 78.6586 18.0824ZM87.9718 14.3239C87.9782 13.0582 88.7324 12.3168 89.8319 12.3168C90.9249 12.3168 91.5833 13.0327 91.5769 14.2344V20H94.2999V13.7486C94.2999 11.4602 92.9576 10.054 90.9121 10.054C89.4547 10.054 88.4 10.7699 87.959 11.9141H87.8439V10.1818H85.2488V20H87.9718V14.3239ZM105.748 20C109.737 20 111.987 17.5199 111.987 13.429C111.987 9.36364 109.737 6.90909 105.927 6.90909H101.708V20H105.748ZM103.294 18.5938V8.31534H105.825C108.893 8.31534 110.453 10.2585 110.453 13.429C110.453 16.625 108.893 18.5938 105.646 18.5938H103.294ZM118.43 20.2045C121.089 20.2045 122.879 18.1847 122.879 15.142C122.879 12.0739 121.089 10.054 118.43 10.054C115.771 10.054 113.981 12.0739 113.981 15.142C113.981 18.1847 115.771 20.2045 118.43 20.2045ZM118.43 18.8494C116.41 18.8494 115.49 17.1108 115.49 15.142C115.49 13.1733 116.41 11.4091 118.43 11.4091C120.45 11.4091 121.37 13.1733 121.37 15.142C121.37 17.1108 120.45 18.8494 118.43 18.8494ZM129.17 20.2045C131.343 20.2045 132.775 18.875 133.031 17.1364H131.522C131.241 18.2102 130.346 18.8494 129.17 18.8494C127.38 18.8494 126.23 17.3665 126.23 15.0909C126.23 12.8665 127.406 11.4091 129.17 11.4091C130.5 11.4091 131.292 12.2273 131.522 13.1222H133.031C132.775 11.2812 131.216 10.054 129.145 10.054C126.485 10.054 124.721 12.1506 124.721 15.142C124.721 18.0824 126.409 20.2045 129.17 20.2045ZM141.424 15.9858C141.424 17.8267 140.017 18.6705 138.892 18.6705C137.64 18.6705 136.745 17.75 136.745 16.3182V10.1818H135.236V16.4205C135.236 18.9261 136.566 20.1278 138.407 20.1278C139.89 20.1278 140.861 19.3352 141.321 18.3381H141.424V20H142.932V10.1818H141.424V15.9858ZM145.695 20H147.204V13.8636C147.204 12.4254 148.252 11.4091 149.428 11.4091C150.572 11.4091 151.371 12.157 151.371 13.2756V20H152.905V13.608C152.905 12.3423 153.698 11.4091 155.079 11.4091C156.153 11.4091 157.073 11.978 157.073 13.429V20H158.581V13.429C158.581 11.1214 157.341 10.054 155.59 10.054C154.184 10.054 153.155 10.6996 152.65 11.7159H152.547C152.062 10.6676 151.205 10.054 149.914 10.054C148.635 10.054 147.689 10.6676 147.28 11.7159H147.153V10.1818H145.695V20ZM165.456 20.2045C167.45 20.2045 168.908 19.2074 169.368 17.7244L167.911 17.3153C167.527 18.3381 166.639 18.8494 165.456 18.8494C163.686 18.8494 162.465 17.7053 162.394 15.6023H169.521V14.9631C169.521 11.3068 167.348 10.054 165.303 10.054C162.644 10.054 160.879 12.1506 160.879 15.1676C160.879 18.1847 162.618 20.2045 165.456 20.2045ZM162.394 14.2983C162.497 12.7706 163.577 11.4091 165.303 11.4091C166.939 11.4091 167.987 12.6364 167.987 14.2983H162.394ZM173.325 14.0938C173.325 12.3807 174.386 11.4091 175.83 11.4091C177.23 11.4091 178.08 12.3232 178.08 13.8636V20H179.589V13.7614C179.589 11.2557 178.253 10.054 176.265 10.054C174.782 10.054 173.862 10.7188 173.401 11.7159H173.274V10.1818H171.816V20H173.325V14.0938ZM186.615 10.1818H184.519V7.82955H183.01V10.1818H181.527V11.4602H183.01V17.5966C183.01 19.3097 184.391 20.1278 185.669 20.1278C186.232 20.1278 186.59 20.0256 186.794 19.9489L186.488 18.5938C186.36 18.6193 186.155 18.6705 185.823 18.6705C185.158 18.6705 184.519 18.4659 184.519 17.1875V11.4602H186.615V10.1818ZM191.774 20.2301C193.487 20.2301 194.382 19.3097 194.689 18.6705H194.765V20H196.274V13.5312C196.274 10.4119 193.896 10.054 192.643 10.054C191.16 10.054 189.473 10.5653 188.706 12.3551L190.137 12.8665C190.47 12.1506 191.256 11.3835 192.694 11.3835C194.081 11.3835 194.765 12.1186 194.765 13.3778V13.429C194.765 14.1577 194.024 14.0938 192.234 14.3239C190.412 14.5604 188.424 14.9631 188.424 17.2131C188.424 19.1307 189.907 20.2301 191.774 20.2301ZM192.004 18.875C190.802 18.875 189.933 18.3381 189.933 17.2898C189.933 16.1392 190.981 15.7812 192.157 15.6278C192.797 15.5511 194.51 15.3722 194.765 15.0653V16.446C194.765 17.6733 193.794 18.875 192.004 18.875ZM203.297 10.1818H201.2V7.82955H199.692V10.1818H198.209V11.4602H199.692V17.5966C199.692 19.3097 201.073 20.1278 202.351 20.1278C202.914 20.1278 203.271 20.0256 203.476 19.9489L203.169 18.5938C203.041 18.6193 202.837 18.6705 202.504 18.6705C201.84 18.6705 201.2 18.4659 201.2 17.1875V11.4602H203.297V10.1818ZM205.566 20H207.075V10.1818H205.566V20ZM206.333 8.54545C206.921 8.54545 207.407 8.08523 207.407 7.52273C207.407 6.96023 206.921 6.5 206.333 6.5C205.745 6.5 205.259 6.96023 205.259 7.52273C205.259 8.08523 205.745 8.54545 206.333 8.54545ZM213.826 20.2045C216.485 20.2045 218.275 18.1847 218.275 15.142C218.275 12.0739 216.485 10.054 213.826 10.054C211.167 10.054 209.377 12.0739 209.377 15.142C209.377 18.1847 211.167 20.2045 213.826 20.2045ZM213.826 18.8494C211.806 18.8494 210.886 17.1108 210.886 15.142C210.886 13.1733 211.806 11.4091 213.826 11.4091C215.846 11.4091 216.767 13.1733 216.767 15.142C216.767 17.1108 215.846 18.8494 213.826 18.8494ZM222.086 14.0938C222.086 12.3807 223.148 11.4091 224.592 11.4091C225.992 11.4091 226.842 12.3232 226.842 13.8636V20H228.351V13.7614C228.351 11.2557 227.015 10.054 225.027 10.054C223.544 10.054 222.623 10.7188 222.163 11.7159H222.035V10.1818H220.578V20H222.086V14.0938Z" fill="#333333"/>
<path d="M7.80952 4H4V7.80634H7.80952V4Z" fill="#2871EA"/>
<path d="M13.9047 4H10.0952V7.80634H13.9047V4Z" fill="#2871EA"/>
<path d="M19.9999 4H16.1904V7.80634H19.9999V4Z" fill="#2871EA"/>
<path d="M7.80952 10.0917H4V13.898H7.80952V10.0917Z" fill="#2871EA"/>
<path d="M13.9047 10.0917H10.0952V13.898H13.9047V10.0917Z" fill="#2871EA"/>
<path d="M19.9999 10.0917H16.1904V13.898H19.9999V10.0917Z" fill="#2871EA"/>
<path d="M7.80952 16.1844H4V19.9907H7.80952V16.1844Z" fill="#2871EA"/>
<path d="M13.9047 16.1844H10.0952V19.9907H13.9047V16.1844Z" fill="#2871EA"/>
<path d="M19.9999 16.1844H16.1904V19.9907H19.9999V16.1844Z" fill="#2871EA"/>
</svg>
