<svg width="16" height="15" viewBox="0 0 16 15" fill="none" xmlns="http://www.w3.org/2000/svg">
<path fill-rule="evenodd" clip-rule="evenodd" d="M8.61765 0.000854492C9.86066 0.00381549 10.1532 0.014953 10.8217 0.045105C11.6291 0.081516 12.1806 0.208323 12.6631 0.393738C13.162 0.585376 13.5851 0.841812 14.0069 1.25876C14.4286 1.67574 14.688 2.094 14.8819 2.58719C15.0694 3.06424 15.1977 3.60943 15.2345 4.40771C15.2666 5.10333 15.2774 5.38719 15.2797 6.7887V8.21124C15.2774 9.61273 15.2666 9.89661 15.2345 10.5922C15.1977 11.3905 15.0694 11.9357 14.8819 12.4128C14.688 12.9059 14.4286 13.3242 14.0069 13.7412C13.5851 14.1581 13.162 14.4146 12.6631 14.6062C12.1806 14.7916 11.6291 14.9184 10.8217 14.9548C10.0125 14.9913 9.75416 15 7.69385 15C5.63351 15 5.37514 14.9913 4.56598 14.9548C3.7585 14.9184 3.20703 14.7916 2.72449 14.6062C2.22562 14.4146 1.80254 14.1581 1.38077 13.7412C0.959021 13.3242 0.699611 12.9059 0.505768 12.4128C0.318218 11.9357 0.189966 11.3905 0.153137 10.5922C0.122638 9.93139 0.111393 9.64217 0.108398 8.4133V6.58667C0.111393 5.35778 0.122638 5.06855 0.153137 4.40771C0.189966 3.60943 0.318218 3.06424 0.505768 2.58719C0.699611 2.094 0.959021 1.67574 1.38077 1.25876C1.80254 0.841812 2.22562 0.585376 2.72449 0.393738C3.20703 0.208323 3.7585 0.081516 4.56598 0.045105C5.23442 0.014953 5.52699 0.00381549 6.77002 0.000854492H8.61765ZM8.40054 1.35175H6.98712C5.59606 1.35379 5.3239 1.36367 4.6283 1.39505C3.88864 1.42839 3.48693 1.55058 3.2196 1.65329C2.86549 1.78934 2.61281 1.95186 2.34735 2.21432C2.08187 2.47676 1.91747 2.72661 1.77985 3.07669C1.67595 3.34097 1.55237 3.73809 1.51865 4.46933C1.48215 5.26017 1.4744 5.49737 1.4744 7.49997L1.47443 7.75137C1.47511 9.52423 1.48373 9.77415 1.51865 10.5306C1.55237 11.2619 1.67595 11.659 1.77985 11.9232C1.91747 12.2733 2.0819 12.5232 2.34735 12.7856C2.61281 13.0481 2.86549 13.2106 3.2196 13.3466C3.48693 13.4494 3.88864 13.5715 4.6283 13.6049C5.32382 13.6363 5.59594 13.6462 6.98709 13.6482H8.40057C9.79171 13.6462 10.0638 13.6363 10.7593 13.6049C11.499 13.5715 11.9007 13.4494 12.168 13.3466C12.5221 13.2106 12.7749 13.0481 13.0403 12.7856C13.3058 12.5232 13.4702 12.2733 13.6078 11.9232C13.7117 11.659 13.8353 11.2619 13.869 10.5306C13.9008 9.84292 13.9107 9.57385 13.9128 8.19864V6.80133C13.9107 5.4261 13.9008 5.15702 13.869 4.46933C13.8353 3.73809 13.7117 3.34097 13.6078 3.07669C13.4702 2.72661 13.3058 2.47676 13.0403 2.21432C12.7749 1.95186 12.5221 1.78934 12.168 1.65329C11.9007 1.55058 11.499 1.42839 10.7593 1.39505C10.0637 1.36367 9.79158 1.35379 8.40054 1.35175ZM7.69385 3.64862C9.84537 3.64862 11.5895 5.3729 11.5895 7.49997C11.5895 9.62701 9.84537 11.3513 7.69385 11.3513C5.54229 11.3513 3.79813 9.62701 3.79813 7.49997C3.79813 5.3729 5.54229 3.64862 7.69385 3.64862ZM7.69385 4.99997C6.29722 4.99997 5.16504 6.11924 5.16504 7.49997C5.16504 8.88067 6.29722 9.99997 7.69385 9.99997C9.09044 9.99997 10.2226 8.88067 10.2226 7.49997C10.2226 6.11924 9.09044 4.99997 7.69385 4.99997ZM11.7434 2.59644C12.2462 2.59644 12.6538 2.9994 12.6538 3.49646C12.6538 3.99352 12.2462 4.39645 11.7434 4.39645C11.2407 4.39645 10.8331 3.99352 10.8331 3.49646C10.8331 2.9994 11.2407 2.59644 11.7434 2.59644Z" fill="white"/>
</svg>
