<svg width="60" height="60" viewBox="0 0 60 60" fill="none" xmlns="http://www.w3.org/2000/svg">
<rect width="60" height="60" rx="8" fill="url(#paint0_linear)"/>
<path d="M31.6669 31.6669C30.7336 32.6003 29.2503 32.6003 28.3336 31.6836V31.6669C27.4169 30.7503 27.4169 29.2669 28.3336 28.3503V28.3336C29.2503 27.4169 30.7336 27.4169 31.6503 28.3336H31.6669C32.5836 29.2503 32.5836 30.7503 31.6669 31.6669ZM30.0003 20.0003L33.5336 23.5336L37.7003 19.3669L32.3669 14.0336C31.0669 12.7336 28.9503 12.7336 27.6503 14.0336L22.3169 19.3669L26.4836 23.5336L30.0003 20.0003ZM20.0003 30.0003L23.5336 26.4669L19.3669 22.3003L14.0336 27.6336C12.7336 28.9336 12.7336 31.0503 14.0336 32.3503L19.3669 37.6836L23.5336 33.5169L20.0003 30.0003ZM40.0003 30.0003L36.4669 33.5336L40.6336 37.7003L45.9669 32.3669C47.2669 31.0669 47.2669 28.9503 45.9669 27.6503L40.6336 22.3169L36.4669 26.4836L40.0003 30.0003ZM30.0003 40.0003L26.4669 36.4669L22.3003 40.6336L27.6336 45.9669C28.9336 47.2669 31.0503 47.2669 32.3503 45.9669L37.6836 40.6336L33.5169 36.4669L30.0003 40.0003Z" fill="white"/>
<defs>
<linearGradient id="paint0_linear" x1="40.1963" y1="54.6185" x2="13.2" y2="3.6" gradientUnits="userSpaceOnUse">
<stop stop-color="#2C72E5"/>
<stop offset="1" stop-color="#2C72E5" stop-opacity="0.68"/>
</linearGradient>
</defs>
</svg>
