<svg width="97" height="25" viewBox="0 0 97 25" fill="none" xmlns="http://www.w3.org/2000/svg">
<path d="M67.1193 11C66.6335 8.31534 64.4858 6.73011 61.8523 6.73011C58.5028 6.73011 56.0739 9.3125 56.0739 13.4545C56.0739 17.5966 58.5028 20.179 61.8523 20.179C64.4858 20.179 66.6335 18.5938 67.1193 15.9091H65.5341C65.1506 17.7244 63.5909 18.696 61.8523 18.696C59.4744 18.696 57.608 16.8551 57.608 13.4545C57.608 10.054 59.4744 8.21307 61.8523 8.21307C63.5909 8.21307 65.1506 9.18466 65.5341 11H67.1193ZM73.465 20.2045C76.1241 20.2045 77.9139 18.1847 77.9139 15.142C77.9139 12.0739 76.1241 10.054 73.465 10.054C70.8059 10.054 69.0162 12.0739 69.0162 15.142C69.0162 18.1847 70.8059 20.2045 73.465 20.2045ZM73.465 18.8494C71.4451 18.8494 70.5247 17.1108 70.5247 15.142C70.5247 13.1733 71.4451 11.4091 73.465 11.4091C75.4849 11.4091 76.4054 13.1733 76.4054 15.142C76.4054 17.1108 75.4849 18.8494 73.465 18.8494ZM80.2166 20H81.7251V13.7869C81.7251 12.4574 82.7734 11.4858 84.2053 11.4858C84.608 11.4858 85.0234 11.5625 85.1257 11.5881V10.054C84.9531 10.0412 84.5568 10.0284 84.3331 10.0284C83.157 10.0284 82.1342 10.6932 81.7763 11.6648H81.674V10.1818H80.2166V20ZM86.9139 23.6818H88.4224V18.4915H88.5502C88.8826 19.0284 89.5218 20.2045 91.4139 20.2045C93.8684 20.2045 95.5815 18.2358 95.5815 15.1165C95.5815 12.0227 93.8684 10.054 91.3883 10.054C89.4707 10.054 88.8826 11.2301 88.5502 11.7415H88.3713V10.1818H86.9139V23.6818ZM88.3968 15.0909C88.3968 12.892 89.3684 11.4091 91.2093 11.4091C93.127 11.4091 94.073 13.0199 94.073 15.0909C94.073 17.1875 93.1014 18.8494 91.2093 18.8494C89.394 18.8494 88.3968 17.3153 88.3968 15.0909Z" fill="#333333"/>
<path d="M5.04599 20.776C7.01447 20.776 8.42846 20.02 9.45429 18.872V20.44H14.6666V11.732C14.6666 9.604 14.1953 8.036 13.0586 6.916C11.8664 5.712 10.0365 5.068 7.34718 5.068C4.76873 5.068 2.9666 5.544 1.27536 6.244L2.35664 9.996C3.68745 9.464 4.90736 9.156 6.4877 9.156C8.51163 9.156 9.48202 10.052 9.48202 11.62V11.872C8.62253 11.564 7.264 11.284 5.87774 11.284C2.35664 11.284 0 12.908 0 16.044V16.1C0 19.124 2.19029 20.776 5.04599 20.776ZM6.9313 17.444C5.85002 17.444 5.07371 16.828 5.07371 15.792V15.736C5.07371 14.616 5.96092 13.86 7.4858 13.86C8.26211 13.86 9.01069 14.028 9.53747 14.252V14.952C9.53747 16.464 8.45618 17.444 6.9313 17.444Z" fill="#333333"/>
<path d="M27.1882 20.776C30.7371 20.776 33.8146 17.78 33.8146 12.852V12.796C33.8146 7.952 30.7371 4.956 27.1605 4.956C24.9148 4.956 23.6394 6.048 22.6136 7.308V0H17.3458V20.44H22.6136V18.592C23.584 19.74 24.9148 20.776 27.1882 20.776ZM25.5524 16.324C23.8612 16.324 22.5027 14.896 22.5027 12.88V12.824C22.5027 10.836 23.8612 9.408 25.5524 9.408C27.2714 9.408 28.6299 10.836 28.6299 12.824V12.88C28.6299 14.924 27.2714 16.324 25.5524 16.324Z" fill="#333333"/>
<path d="M43.3182 20.804C46.6175 20.804 48.6137 19.404 50 17.332L46.4789 14.756C45.6471 15.736 44.8431 16.324 43.5955 16.324C41.8211 16.324 40.6012 14.84 40.6012 12.88V12.824C40.6012 10.976 41.8488 9.464 43.54 9.464C44.8154 9.464 45.6194 10.052 46.3403 11.06L49.9168 8.372C48.6415 6.328 46.5898 4.984 43.5123 4.984C38.7713 4.984 35.472 8.596 35.472 12.88V12.936C35.472 17.22 38.799 20.804 43.3182 20.804Z" fill="#333333"/>
</svg>
