<svg xmlns="http://www.w3.org/2000/svg" width="60" height="61" viewBox="0 0 60 61" fill="none"><rect y="0.5" width="60" height="60" rx="8" fill="url(#paint0_linear)"></rect><path d="M44.1667 27.5V40C44.1667 41.375 43.0417 42.5 41.6667 42.5H21.6667C20.9792 42.5 20.4167 41.9375 20.4167 41.25C20.4167 40.5625 20.9792 40 21.6667 40H41.6667V27.5C41.6667 26.8125 42.2292 26.25 42.9167 26.25C43.6042 26.25 44.1667 26.8125 44.1667 27.5ZM20.4167 37.5C18.3417 37.5 16.6667 35.825 16.6667 33.75V26.25C16.6667 24.175 18.3417 22.5 20.4167 22.5H35.4167C37.4917 22.5 39.1667 24.175 39.1667 26.25V35C39.1667 36.375 38.0417 37.5 36.6667 37.5H20.4167ZM24.1667 30C24.1667 32.075 25.8417 33.75 27.9167 33.75C29.9917 33.75 31.6667 32.075 31.6667 30C31.6667 27.925 29.9917 26.25 27.9167 26.25C25.8417 26.25 24.1667 27.925 24.1667 30Z" fill="white"></path><defs><linearGradient id="paint0_linear" x1="40.1963" y1="55.1185" x2="13.2" y2="4.1" gradientUnits="userSpaceOnUse"><stop stop-color="#2C72E5"></stop><stop offset="1" stop-color="#2C72E5" stop-opacity="0.68"></stop></linearGradient></defs></svg>