<svg xmlns="http://www.w3.org/2000/svg" width="60" height="60" viewBox="0 0 60 60" fill="none"><rect width="60" height="60" rx="8" fill="url(#paint0_linear)"></rect><path d="M19.6491 16.6667C17.9938 16.6667 16.6667 18 16.6667 19.6296V40.3704C16.6667 41.1562 16.9809 41.9098 17.5402 42.4655C18.0995 43.0212 18.8581 43.3333 19.6491 43.3333H40.5263C41.3173 43.3333 42.0759 43.0212 42.6352 42.4655C43.1945 41.9098 43.5088 41.1562 43.5088 40.3704V36.9926C44.3886 36.4741 45 35.5407 45 34.4444V25.5555C45 24.4592 44.3886 23.5259 43.5088 23.0074V19.6296C43.5088 18.8438 43.1945 18.0902 42.6352 17.5345C42.0759 16.9788 41.3173 16.6667 40.5263 16.6667H19.6491ZM19.6491 19.6296H40.5263V22.5926H31.5789C30.7879 22.5926 30.0293 22.9047 29.47 23.4604C28.9107 24.0161 28.5965 24.7697 28.5965 25.5555V34.4444C28.5965 35.2303 28.9107 35.9839 29.47 36.5396C30.0293 37.0952 30.7879 37.4074 31.5789 37.4074H40.5263V40.3704H19.6491V19.6296ZM31.5789 25.5555H42.0175V34.4444H31.5789V25.5555ZM36.0526 27.7778C35.4594 27.7778 34.8904 28.0119 34.4709 28.4286C34.0514 28.8454 33.8158 29.4106 33.8158 30C33.8158 30.5894 34.0514 31.1546 34.4709 31.5713C34.8904 31.9881 35.4594 32.2222 36.0526 32.2222C36.6459 32.2222 37.2148 31.9881 37.6343 31.5713C38.0538 31.1546 38.2895 30.5894 38.2895 30C38.2895 29.4106 38.0538 28.8454 37.6343 28.4286C37.2148 28.0119 36.6459 27.7778 36.0526 27.7778Z" fill="white"></path><defs><linearGradient id="paint0_linear" x1="40.1963" y1="54.6185" x2="13.2" y2="3.6" gradientUnits="userSpaceOnUse"><stop stop-color="#2C72E5"></stop><stop offset="1" stop-color="#2C72E5" stop-opacity="0.68"></stop></linearGradient></defs></svg>