<svg xmlns="http://www.w3.org/2000/svg" width="60" height="61" viewBox="0 0 60 61" fill="none"><rect y="0.5" width="60" height="60" rx="8" fill="url(#paint0_linear)"></rect><path d="M40 16C40.7956 16 41.5587 16.3161 42.1213 16.8787C42.6839 17.4413 43 18.2044 43 19V43C43 43.7956 42.6839 44.5587 42.1213 45.1213C41.5587 45.6839 40.7956 46 40 46H22C21.2044 46 20.4413 45.6839 19.8787 45.1213C19.3161 44.5587 19 43.7956 19 43V19C19 18.2044 19.3161 17.4413 19.8787 16.8787C20.4413 16.3161 21.2044 16 22 16H40ZM40 19H32.5V26.5L28.75 23.05L25 26.5V19H22V43H40V19ZM32.5 29.5C33.0933 29.5 33.6734 29.6759 34.1667 30.0056C34.6601 30.3352 35.0446 30.8038 35.2716 31.3519C35.4987 31.9001 35.5581 32.5033 35.4424 33.0853C35.3266 33.6672 35.0409 34.2018 34.6213 34.6213C34.2018 35.0409 33.6672 35.3266 33.0853 35.4424C32.5033 35.5581 31.9001 35.4987 31.3519 35.2716C30.8038 35.0446 30.3352 34.6601 30.0056 34.1667C29.6759 33.6734 29.5 33.0933 29.5 32.5C29.5 31.7044 29.8161 30.9413 30.3787 30.3787C30.9413 29.8161 31.7043 29.5 32.5 29.5ZM38.5 41.5H26.5V40C26.5 38.005 30.505 37 32.5 37C34.495 37 38.5 38.005 38.5 40V41.5Z" fill="white"></path><defs><linearGradient id="paint0_linear" x1="40.1963" y1="55.1185" x2="13.2" y2="4.1" gradientUnits="userSpaceOnUse"><stop stop-color="#2C72E5"></stop><stop offset="1" stop-color="#2C72E5" stop-opacity="0.68"></stop></linearGradient></defs></svg>