<svg width="20" height="20" viewBox="0 0 20 20" fill="none" xmlns="http://www.w3.org/2000/svg">
<path fill-rule="evenodd" clip-rule="evenodd" d="M9.80707 15.8334C11.352 15.8334 12.8337 15.2188 13.9261 14.1248C15.0186 13.0309 15.6323 11.5471 15.6323 10C15.6323 8.45294 15.0186 6.96921 13.9261 5.87525C12.8337 4.78129 11.352 4.16671 9.80707 4.16671C8.26212 4.16671 6.78045 4.78129 5.68801 5.87525C4.59556 6.96921 3.98184 8.45294 3.98184 10C3.98184 11.5471 4.59556 13.0309 5.68801 14.1248C6.78045 15.2188 8.26212 15.8334 9.80707 15.8334ZM9.80707 16.6667C11.5727 16.6667 13.2661 15.9643 14.5146 14.7141C15.7631 13.4638 16.4645 11.7682 16.4645 10C16.4645 8.23193 15.7631 6.53624 14.5146 5.286C13.2661 4.03575 11.5727 3.33337 9.80707 3.33337C8.04142 3.33337 6.34808 4.03575 5.09957 5.286C3.85106 6.53624 3.14966 8.23193 3.14966 10C3.14966 11.7682 3.85106 13.4638 5.09957 14.7141C6.34808 15.9643 8.04142 16.6667 9.80707 16.6667Z" fill="#111111"/>
<path d="M7.51855 8.36024H8.61703C8.61703 7.7094 8.99816 7.2069 9.74878 7.2069C10.3188 7.2069 10.8414 7.49273 10.8414 8.18024C10.8414 8.70941 10.5302 8.95275 10.0384 9.32275C9.47833 9.73025 9.03478 10.2061 9.0664 10.9786L9.07223 11.3644H10.1599V11.0686C10.1599 10.4703 10.3871 10.2961 11.0004 9.83025C11.5072 9.44442 12.0356 9.01608 12.0356 8.11691C12.0356 6.85773 10.9737 6.24939 9.8112 6.24939C8.70773 6.24939 7.49276 6.78856 7.51939 8.36024H7.51855ZM8.81841 12.9569C8.81841 13.4011 9.17209 13.7295 9.65891 13.7295C10.1657 13.7295 10.5144 13.4011 10.5144 12.9569C10.5144 12.4969 10.1649 12.1736 9.65808 12.1736C9.17209 12.1736 8.81841 12.4969 8.81841 12.9569Z" fill="#111111"/>
</svg>
