<svg xmlns="http://www.w3.org/2000/svg" width="249" height="81" viewBox="0 0 249 81" fill="none"><path d="M70 31C71.3261 31 72.5979 31.5268 73.5355 32.4645C74.4732 33.4021 75 34.6739 75 36C75 37.3261 74.4732 38.5979 73.5355 39.5355C72.5979 40.4732 71.3261 41 70 41C68.6739 41 67.4021 40.4732 66.4645 39.5355C65.5268 38.5979 65 37.3261 65 36C65 34.6739 65.5268 33.4021 66.4645 32.4645C67.4021 31.5268 68.6739 31 70 31ZM70 43.5C75.525 43.5 80 45.7375 80 48.5V51H60V48.5C60 45.7375 64.475 43.5 70 43.5Z" fill="url(#paint0_linear)"></path><path d="M181 18C182.061 18 183.078 18.4214 183.828 19.1716C184.579 19.9217 185 20.9391 185 22C185 23.0609 184.579 24.0783 183.828 24.8284C183.078 25.5786 182.061 26 181 26C179.939 26 178.922 25.5786 178.172 24.8284C177.421 24.0783 177 23.0609 177 22C177 20.9391 177.421 19.9217 178.172 19.1716C178.922 18.4214 179.939 18 181 18ZM181 28C185.42 28 189 29.79 189 32V34H173V32C173 29.79 176.58 28 181 28Z" fill="url(#paint1_linear)"></path><path d="M181 47C182.061 47 183.078 47.4214 183.828 48.1716C184.579 48.9217 185 49.9391 185 51C185 52.0609 184.579 53.0783 183.828 53.8284C183.078 54.5786 182.061 55 181 55C179.939 55 178.922 54.5786 178.172 53.8284C177.421 53.0783 177 52.0609 177 51C177 49.9391 177.421 48.9217 178.172 48.1716C178.922 47.4214 179.939 47 181 47ZM181 57C185.42 57 189 58.79 189 61V63H173V61C173 58.79 176.58 57 181 57Z" fill="url(#paint2_linear)"></path><path d="M122 46C124.761 46 127 43.7614 127 41C127 38.2386 124.761 36 122 36C119.239 36 117 38.2386 117 41C117 43.7614 119.239 46 122 46Z" fill="url(#paint3_linear)"></path><path d="M110.354 41.3536C110.549 41.1583 110.549 40.8417 110.354 40.6464L107.172 37.4645C106.976 37.2692 106.66 37.2692 106.464 37.4645C106.269 37.6597 106.269 37.9763 106.464 38.1716L109.293 41L106.464 43.8284C106.269 44.0237 106.269 44.3403 106.464 44.5355C106.66 44.7308 106.976 44.7308 107.172 44.5355L110.354 41.3536ZM84 41.5H110V40.5H84V41.5Z" fill="url(#paint4_linear)"></path><path d="M165.056 25.9718C165.052 25.6903 164.829 25.4746 164.559 25.4902L160.157 25.7439C159.887 25.7595 159.671 26.0004 159.675 26.2819C159.68 26.5635 159.902 26.7791 160.172 26.7635L164.086 26.538L164.148 30.6162C164.152 30.8978 164.374 31.1134 164.645 31.0978C164.915 31.0822 165.13 30.8414 165.126 30.5598L165.056 25.9718ZM135.02 40.5089C141.769 39.9371 146.893 39.0409 151.511 36.9528C156.138 34.8612 160.219 31.5919 164.918 26.3405L164.216 25.6595C159.576 30.8439 155.608 34.0042 151.153 36.0183C146.689 38.0361 141.698 38.9219 134.98 39.4911L135.02 40.5089Z" fill="url(#paint5_linear)"></path><path d="M165.056 55.5731C165.052 55.8547 164.829 56.0703 164.559 56.0547L160.157 55.801C159.887 55.7854 159.671 55.5445 159.675 55.263C159.68 54.9815 159.902 54.7658 160.172 54.7814L164.086 55.0069L164.148 50.9287C164.152 50.6472 164.374 50.4315 164.645 50.4471C164.915 50.4627 165.13 50.7035 165.126 50.9851L165.056 55.5731ZM135.02 41.036C141.769 41.6078 146.893 42.5041 151.511 44.5921C156.138 46.6837 160.219 49.953 164.918 55.2044L164.216 55.8855C159.576 50.701 155.608 47.5407 151.153 45.5266C146.689 43.5088 141.698 42.623 134.98 42.0538L135.02 41.036Z" fill="url(#paint6_linear)"></path><defs><linearGradient id="paint0_linear" x1="73.3988" y1="49.2062" x2="64.4" y2="32.2" gradientUnits="userSpaceOnUse"><stop stop-color="#2C72E5"></stop><stop offset="1" stop-color="#2C72E5" stop-opacity="0.68"></stop></linearGradient><linearGradient id="paint1_linear" x1="183.719" y1="32.5649" x2="176.52" y2="18.96" gradientUnits="userSpaceOnUse"><stop stop-color="#2C72E5"></stop><stop offset="1" stop-color="#2C72E5" stop-opacity="0.68"></stop></linearGradient><linearGradient id="paint2_linear" x1="183.719" y1="61.5649" x2="176.52" y2="47.96" gradientUnits="userSpaceOnUse"><stop stop-color="#2C72E5"></stop><stop offset="1" stop-color="#2C72E5" stop-opacity="0.68"></stop></linearGradient><linearGradient id="paint3_linear" x1="123.699" y1="45.1031" x2="119.2" y2="36.6" gradientUnits="userSpaceOnUse"><stop stop-color="#2C72E5"></stop><stop offset="1" stop-color="#2C72E5" stop-opacity="0.68"></stop></linearGradient><linearGradient id="paint4_linear" x1="101.418" y1="41.9103" x2="101.396" y2="40.8224" gradientUnits="userSpaceOnUse"><stop stop-color="#2C72E5"></stop><stop offset="1" stop-color="#2C72E5" stop-opacity="0.68"></stop></linearGradient><linearGradient id="paint5_linear" x1="156.113" y1="33.8481" x2="154.118" y2="30.229" gradientUnits="userSpaceOnUse"><stop stop-color="#2C72E5"></stop><stop offset="1" stop-color="#2C72E5" stop-opacity="0.68"></stop></linearGradient><linearGradient id="paint6_linear" x1="156.113" y1="47.6968" x2="154.118" y2="51.3159" gradientUnits="userSpaceOnUse"><stop stop-color="#2C72E5"></stop><stop offset="1" stop-color="#2C72E5" stop-opacity="0.68"></stop></linearGradient></defs></svg>