<svg xmlns="http://www.w3.org/2000/svg" width="249" height="81" viewBox="0 0 249 81" fill="none"><path d="M61.905 37.5714H64.7625V44.2381H61.905V37.5714ZM68.0962 37.5714H70.9537V44.2381H68.0962V37.5714ZM60 46.1429H79.05V49H60V46.1429ZM74.2875 37.5714H77.145V44.2381H74.2875V37.5714ZM69.525 29L60 33.7619V35.6667H79.05V33.7619L69.525 29Z" fill="url(#paint0_linear)"></path><path d="M181 18C182.061 18 183.078 18.4214 183.828 19.1716C184.579 19.9217 185 20.9391 185 22C185 23.0609 184.579 24.0783 183.828 24.8284C183.078 25.5786 182.061 26 181 26C179.939 26 178.922 25.5786 178.172 24.8284C177.421 24.0783 177 23.0609 177 22C177 20.9391 177.421 19.9217 178.172 19.1716C178.922 18.4214 179.939 18 181 18V18ZM181 28C185.42 28 189 29.79 189 32V34H173V32C173 29.79 176.58 28 181 28Z" fill="url(#paint1_linear)"></path><path d="M181 47C182.061 47 183.078 47.4214 183.828 48.1716C184.579 48.9217 185 49.9391 185 51C185 52.0609 184.579 53.0783 183.828 53.8284C183.078 54.5786 182.061 55 181 55C179.939 55 178.922 54.5786 178.172 53.8284C177.421 53.0783 177 52.0609 177 51C177 49.9391 177.421 48.9217 178.172 48.1716C178.922 47.4214 179.939 47 181 47V47ZM181 57C185.42 57 189 58.79 189 61V63H173V61C173 58.79 176.58 57 181 57Z" fill="url(#paint2_linear)"></path><path d="M110.354 41.3536C110.549 41.1583 110.549 40.8417 110.354 40.6464L107.172 37.4645C106.976 37.2692 106.66 37.2692 106.464 37.4645C106.269 37.6597 106.269 37.9763 106.464 38.1716L109.293 41L106.464 43.8284C106.269 44.0237 106.269 44.3403 106.464 44.5355C106.66 44.7308 106.976 44.7308 107.172 44.5355L110.354 41.3536ZM84 41.5H110V40.5H84V41.5Z" fill="url(#paint3_linear)"></path><path d="M165.056 25.9718C165.052 25.6903 164.829 25.4746 164.559 25.4902L160.157 25.7439C159.887 25.7595 159.671 26.0004 159.675 26.2819C159.68 26.5635 159.902 26.7791 160.172 26.7635L164.086 26.538L164.148 30.6162C164.152 30.8978 164.374 31.1134 164.645 31.0978C164.915 31.0822 165.13 30.8414 165.126 30.5598L165.056 25.9718ZM135.02 40.5089C141.769 39.9371 146.893 39.0409 151.511 36.9528C156.138 34.8612 160.219 31.5919 164.918 26.3405L164.216 25.6595C159.576 30.8439 155.608 34.0042 151.153 36.0183C146.689 38.0361 141.698 38.9219 134.98 39.4911L135.02 40.5089Z" fill="url(#paint4_linear)"></path><path d="M165.056 55.5731C165.052 55.8547 164.829 56.0703 164.559 56.0547L160.157 55.801C159.887 55.7854 159.671 55.5445 159.675 55.263C159.68 54.9815 159.902 54.7658 160.172 54.7814L164.086 55.0069L164.148 50.9287C164.152 50.6472 164.374 50.4315 164.645 50.4471C164.915 50.4627 165.13 50.7035 165.126 50.9851L165.056 55.5731ZM135.02 41.036C141.769 41.6078 146.893 42.5041 151.511 44.5921C156.138 46.6837 160.219 49.953 164.918 55.2044L164.216 55.8855C159.576 50.701 155.608 47.5407 151.153 45.5266C146.689 43.5088 141.698 42.623 134.98 42.0538L135.02 41.036Z" fill="url(#paint5_linear)"></path><rect x="115" y="31" width="14.4444" height="20" rx="1" fill="url(#paint6_linear)"></rect><rect x="120.625" y="34.125" width="3.125" height="3.75" rx="0.5" fill="white"></rect><path d="M121.618 46.6863C121.853 46.891 122.16 47.0149 122.497 47.0149C122.833 47.0149 123.141 46.891 123.376 46.6859C123.383 46.68 123.387 46.6718 123.387 46.6631C123.388 46.6543 123.385 46.6457 123.38 46.639L123.229 46.4594C123.217 46.4451 123.195 46.4435 123.181 46.4556C122.999 46.6164 122.759 46.7135 122.497 46.7135C122.234 46.7135 121.995 46.6164 121.812 46.456C121.798 46.4439 121.777 46.4456 121.764 46.4598L121.614 46.6394C121.602 46.6532 121.604 46.6741 121.618 46.6863ZM121.126 47.2728C121.497 47.5821 121.975 47.7684 122.497 47.7684C123.018 47.7684 123.496 47.5821 123.868 47.2728C123.874 47.267 123.879 47.2588 123.88 47.25C123.88 47.2411 123.878 47.2323 123.872 47.2255L123.721 47.0459C123.709 47.0316 123.688 47.03 123.674 47.0417C123.355 47.3071 122.944 47.467 122.497 47.467C122.049 47.467 121.638 47.3071 121.319 47.0417C121.305 47.03 121.284 47.0316 121.273 47.0459L121.122 47.2255C121.11 47.2397 121.112 47.2611 121.126 47.2728V47.2728ZM120.638 47.8547C121.146 48.2716 121.796 48.522 122.505 48.522C123.209 48.522 123.856 48.275 124.362 47.863C124.366 47.8602 124.369 47.8568 124.371 47.8529C124.373 47.8489 124.374 47.8446 124.375 47.8402C124.375 47.8357 124.375 47.8312 124.373 47.827C124.372 47.8227 124.37 47.8187 124.367 47.8153L124.216 47.6357C124.205 47.6219 124.184 47.6198 124.17 47.6311C123.715 47.9999 123.136 48.2206 122.505 48.2206C121.87 48.2206 121.287 47.9966 120.83 47.6232C120.816 47.6115 120.795 47.6135 120.784 47.6278L120.633 47.8074C120.621 47.8216 120.623 47.843 120.638 47.8547ZM122.769 46.0269C122.769 45.9559 122.741 45.8877 122.69 45.8375C122.64 45.7872 122.572 45.759 122.501 45.759C122.43 45.759 122.362 45.7872 122.311 45.8375C122.261 45.8877 122.233 45.9559 122.233 46.0269C122.233 46.098 122.261 46.1661 122.311 46.2164C122.362 46.2666 122.43 46.2949 122.501 46.2949C122.572 46.2949 122.64 46.2666 122.69 46.2164C122.741 46.1661 122.769 46.098 122.769 46.0269Z" fill="white"></path><defs><linearGradient id="paint0_linear" x1="72.7623" y1="47.2062" x2="63.5214" y2="30.572" gradientUnits="userSpaceOnUse"><stop stop-color="#2C72E5"></stop><stop offset="1" stop-color="#2C72E5" stop-opacity="0.68"></stop></linearGradient><linearGradient id="paint1_linear" x1="183.719" y1="32.5649" x2="176.52" y2="18.96" gradientUnits="userSpaceOnUse"><stop stop-color="#2C72E5"></stop><stop offset="1" stop-color="#2C72E5" stop-opacity="0.68"></stop></linearGradient><linearGradient id="paint2_linear" x1="183.719" y1="61.5649" x2="176.52" y2="47.96" gradientUnits="userSpaceOnUse"><stop stop-color="#2C72E5"></stop><stop offset="1" stop-color="#2C72E5" stop-opacity="0.68"></stop></linearGradient><linearGradient id="paint3_linear" x1="101.418" y1="41.9103" x2="101.396" y2="40.8224" gradientUnits="userSpaceOnUse"><stop stop-color="#2C72E5"></stop><stop offset="1" stop-color="#2C72E5" stop-opacity="0.68"></stop></linearGradient><linearGradient id="paint4_linear" x1="156.113" y1="33.8481" x2="154.118" y2="30.229" gradientUnits="userSpaceOnUse"><stop stop-color="#2C72E5"></stop><stop offset="1" stop-color="#2C72E5" stop-opacity="0.68"></stop></linearGradient><linearGradient id="paint5_linear" x1="156.113" y1="47.6968" x2="154.118" y2="51.3159" gradientUnits="userSpaceOnUse"><stop stop-color="#2C72E5"></stop><stop offset="1" stop-color="#2C72E5" stop-opacity="0.68"></stop></linearGradient><linearGradient id="paint6_linear" x1="124.677" y1="49.2062" x2="114.299" y2="35.0418" gradientUnits="userSpaceOnUse"><stop stop-color="#2C72E5"></stop><stop offset="1" stop-color="#2C72E5" stop-opacity="0.68"></stop></linearGradient></defs></svg>