<svg xmlns="http://www.w3.org/2000/svg" width="249" height="81" viewBox="0 0 249 81" fill="none"><path d="M61.5238 24.8571H63.8095V30.1905H61.5238V24.8571ZM66.4762 24.8571H68.7619V30.1905H66.4762V24.8571ZM60 31.7143H75.2381V34H60V31.7143ZM71.4286 24.8571H73.7143V30.1905H71.4286V24.8571ZM67.619 18L60 21.8095V23.3333H75.2381V21.8095L67.619 18Z" fill="url(#paint0_linear)"></path><path d="M181 18C182.061 18 183.078 18.4214 183.828 19.1716C184.579 19.9217 185 20.9391 185 22C185 23.0609 184.579 24.0783 183.828 24.8284C183.078 25.5786 182.061 26 181 26C179.939 26 178.922 25.5786 178.172 24.8284C177.421 24.0783 177 23.0609 177 22C177 20.9391 177.421 19.9217 178.172 19.1716C178.922 18.4214 179.939 18 181 18ZM181 28C185.42 28 189 29.79 189 32V34H173V32C173 29.79 176.58 28 181 28Z" fill="url(#paint1_linear)"></path><rect x="115" y="39" width="17.3333" height="24" rx="1" fill="url(#paint2_linear)"></rect><rect x="121.75" y="42.75" width="3.75" height="4.5" rx="0.5" fill="white"></rect><path d="M122.941 57.8235C123.223 58.0692 123.592 58.2179 123.996 58.2179C124.4 58.2179 124.769 58.0692 125.051 57.823C125.059 57.816 125.064 57.8062 125.065 57.7957C125.066 57.7852 125.062 57.7748 125.055 57.7668L124.875 57.5513C124.86 57.5342 124.834 57.5322 124.817 57.5467C124.598 57.7396 124.311 57.8562 123.996 57.8562C123.681 57.8562 123.394 57.7396 123.175 57.5472C123.158 57.5327 123.132 57.5347 123.117 57.5518L122.937 57.7673C122.922 57.7838 122.924 57.809 122.941 57.8235ZM122.351 58.5273C122.797 58.8986 123.37 59.1221 123.996 59.1221C124.622 59.1221 125.195 58.8986 125.641 58.5273C125.649 58.5205 125.654 58.5106 125.655 58.5C125.656 58.4894 125.653 58.4788 125.646 58.4706L125.465 58.2551C125.451 58.238 125.426 58.236 125.409 58.25C125.026 58.5685 124.533 58.7604 123.996 58.7604C123.459 58.7604 122.966 58.5685 122.583 58.25C122.566 58.236 122.541 58.238 122.527 58.2551L122.346 58.4706C122.332 58.4876 122.334 58.5133 122.351 58.5273V58.5273ZM121.765 59.2256C122.375 59.726 123.156 60.0264 124.006 60.0264C124.851 60.0264 125.627 59.73 126.235 59.2357C126.239 59.2323 126.243 59.2281 126.245 59.2234C126.248 59.2187 126.249 59.2135 126.25 59.2082C126.25 59.2029 126.25 59.1975 126.248 59.1923C126.247 59.1872 126.244 59.1825 126.241 59.1784L126.06 58.9629C126.046 58.9463 126.02 58.9438 126.004 58.9574C125.458 59.3999 124.763 59.6647 124.006 59.6647C123.243 59.6647 122.544 59.3959 121.997 58.9478C121.98 58.9337 121.954 58.9363 121.94 58.9533L121.759 59.1688C121.745 59.1859 121.747 59.2115 121.765 59.2256ZM124.323 57.0323C124.323 56.947 124.289 56.8653 124.228 56.805C124.168 56.7447 124.086 56.7108 124.001 56.7108C123.916 56.7108 123.834 56.7447 123.774 56.805C123.713 56.8653 123.679 56.947 123.679 57.0323C123.679 57.1176 123.713 57.1994 123.774 57.2597C123.834 57.32 123.916 57.3538 124.001 57.3538C124.086 57.3538 124.168 57.32 124.228 57.2597C124.289 57.1994 124.323 57.1176 124.323 57.0323Z" fill="white"></path><path d="M103.811 54.3796C104.036 54.2107 104.08 53.904 103.908 53.6945L101.117 50.2811C100.945 50.0717 100.624 50.0388 100.398 50.2077C100.173 50.3765 100.129 50.6832 100.301 50.8927L102.782 53.9268L99.5185 56.3731C99.2932 56.542 99.2494 56.8487 99.4207 57.0582C99.592 57.2676 99.9136 57.3005 100.139 57.1316L103.811 54.3796ZM69.6274 38.3142C78.563 48.6578 89.4013 53.0492 103.431 54.4847L103.569 53.5159C89.7372 52.1006 79.1626 47.7952 70.427 37.6832L69.6274 38.3142Z" fill="url(#paint3_linear)"></path><path d="M177.489 37.472C177.484 37.1904 177.262 36.9748 176.992 36.9904L172.589 37.2441C172.319 37.2597 172.104 37.5005 172.108 37.7821C172.112 38.0636 172.335 38.2792 172.605 38.2637L176.518 38.0381L176.58 42.1164C176.585 42.3979 176.807 42.6136 177.077 42.598C177.347 42.5824 177.563 42.3416 177.559 42.06L177.489 37.472ZM144.02 54.509C157.606 53.358 167.921 48.3796 177.351 37.8407L176.648 37.1596C167.402 47.4925 157.329 52.3602 143.979 53.4912L144.02 54.509Z" fill="url(#paint4_linear)"></path><defs><linearGradient id="paint0_linear" x1="70.2086" y1="32.5649" x2="62.8154" y2="19.2584" gradientUnits="userSpaceOnUse"><stop stop-color="#2C72E5"></stop><stop offset="1" stop-color="#2C72E5" stop-opacity="0.68"></stop></linearGradient><linearGradient id="paint1_linear" x1="183.719" y1="32.5649" x2="176.52" y2="18.96" gradientUnits="userSpaceOnUse"><stop stop-color="#2C72E5"></stop><stop offset="1" stop-color="#2C72E5" stop-opacity="0.68"></stop></linearGradient><linearGradient id="paint2_linear" x1="126.612" y1="60.8474" x2="114.159" y2="43.8501" gradientUnits="userSpaceOnUse"><stop stop-color="#2C72E5"></stop><stop offset="1" stop-color="#2C72E5" stop-opacity="0.68"></stop></linearGradient><linearGradient id="paint3_linear" x1="90.4251" y1="51.9616" x2="92.6486" y2="47.1181" gradientUnits="userSpaceOnUse"><stop stop-color="#2C72E5"></stop><stop offset="1" stop-color="#2C72E5" stop-opacity="0.68"></stop></linearGradient><linearGradient id="paint4_linear" x1="167.45" y1="46.2674" x2="165.252" y2="42.2681" gradientUnits="userSpaceOnUse"><stop stop-color="#2C72E5"></stop><stop offset="1" stop-color="#2C72E5" stop-opacity="0.68"></stop></linearGradient></defs></svg>