<svg xmlns="http://www.w3.org/2000/svg" width="40" height="40" viewBox="0 0 40 40" fill="none"><path d="M29 11.4286C29 10.6396 28.3604 10 27.5714 10H12.4286C11.6396 10 11 10.6396 11 11.4286V11.4286C11 12.2175 11.6396 12.8571 12.4286 12.8571H27.5714C28.3604 12.8571 29 12.2175 29 11.4286V11.4286ZM11 17.1429C11 16.3539 11.6396 15.7143 12.4286 15.7143H27.5714C28.3604 15.7143 29 16.3539 29 17.1429V17.1429C29 17.9318 28.3604 18.5714 27.5714 18.5714H12.4286C11.6396 18.5714 11 17.9318 11 17.1429V17.1429ZM5 21.5C5 20.6716 5.67157 20 6.5 20V20C7.32843 20 8 20.6716 8 21.5V27.1429H32V21.5C32 20.6716 32.6716 20 33.5 20V20C34.3284 20 35 20.6716 35 21.5V27.1429C35 27.9006 34.6839 28.6273 34.1213 29.1632C33.5587 29.699 32.7956 30 32 30H8C7.20435 30 6.44129 29.699 5.87868 29.1632C5.31607 28.6273 5 27.9006 5 27.1429V21.5ZM29 22.8571C29 22.0682 28.3604 21.4286 27.5714 21.4286H12.4286C11.6396 21.4286 11 22.0682 11 22.8571V22.8571C11 23.6461 11.6396 24.2857 12.4286 24.2857H27.5714C28.3604 24.2857 29 23.6461 29 22.8571V22.8571Z" fill="url(#paint0_linear)"></path><defs><linearGradient id="paint0_linear" x1="25.0982" y1="28.2062" x2="18.2691" y2="8.84739" gradientUnits="userSpaceOnUse"><stop stop-color="#2C72E5"></stop><stop offset="1" stop-color="#2C72E5" stop-opacity="0.68"></stop></linearGradient></defs></svg>