<svg width="60" height="60" viewBox="0 0 60 60" fill="none" xmlns="http://www.w3.org/2000/svg">
<rect width="60" height="60" rx="8" fill="url(#paint0_linear)"/>
<path d="M40 15.5C40.7956 15.5 41.5587 15.8161 42.1213 16.3787C42.6839 16.9413 43 17.7044 43 18.5V42.5C43 43.2956 42.6839 44.0587 42.1213 44.6213C41.5587 45.1839 40.7956 45.5 40 45.5H22C21.2044 45.5 20.4413 45.1839 19.8787 44.6213C19.3161 44.0587 19 43.2956 19 42.5V18.5C19 17.7044 19.3161 16.9413 19.8787 16.3787C20.4413 15.8161 21.2044 15.5 22 15.5H40ZM40 18.5H32.5V26L28.75 22.55L25 26V18.5H22V42.5H40V18.5ZM32.5 29C33.0933 29 33.6734 29.1759 34.1667 29.5056C34.6601 29.8352 35.0446 30.3038 35.2716 30.8519C35.4987 31.4001 35.5581 32.0033 35.4424 32.5853C35.3266 33.1672 35.0409 33.7018 34.6213 34.1213C34.2018 34.5409 33.6672 34.8266 33.0853 34.9424C32.5033 35.0581 31.9001 34.9987 31.3519 34.7716C30.8038 34.5446 30.3352 34.1601 30.0056 33.6667C29.6759 33.1734 29.5 32.5933 29.5 32C29.5 31.2044 29.8161 30.4413 30.3787 29.8787C30.9413 29.3161 31.7043 29 32.5 29ZM38.5 41H26.5V39.5C26.5 37.505 30.505 36.5 32.5 36.5C34.495 36.5 38.5 37.505 38.5 39.5V41Z" fill="white"/>
<defs>
<linearGradient id="paint0_linear" x1="40.1963" y1="54.6185" x2="13.2" y2="3.6" gradientUnits="userSpaceOnUse">
<stop stop-color="#2C72E5"/>
<stop offset="1" stop-color="#2C72E5" stop-opacity="0.68"/>
</linearGradient>
</defs>
</svg>
