<svg width="16" height="14" viewBox="0 0 16 14" fill="none" xmlns="http://www.w3.org/2000/svg">
<path fill-rule="evenodd" clip-rule="evenodd" d="M15.3455 2.07434C14.788 2.32798 14.1878 2.4995 13.5581 2.57614C14.2011 2.182 14.6945 1.55701 14.9269 0.812531C14.3249 1.17747 13.6597 1.44297 12.949 1.5853C12.3826 0.965807 11.5731 0.578979 10.6771 0.578979C8.95923 0.578979 7.56549 2.00682 7.56549 3.76767C7.56549 4.01766 7.5922 4.26033 7.64563 4.4939C5.05852 4.36069 2.7653 3.09253 1.22906 1.16107C0.961003 1.63367 0.807831 2.18199 0.807831 2.7659C0.807831 3.87168 1.35732 4.84791 2.19267 5.41995C1.68327 5.40444 1.20235 5.25937 0.781998 5.02216V5.0614C0.781998 6.60693 1.85515 7.89606 3.28006 8.18802C3.01912 8.26283 2.74393 8.30026 2.45984 8.30026C2.25946 8.30026 2.06353 8.28109 1.87384 8.24368C2.27014 9.51003 3.41898 10.4324 4.78156 10.4571C3.71643 11.3129 2.37345 11.8229 0.915588 11.8229C0.664447 11.8229 0.415978 11.8083 0.172852 11.7791C1.55057 12.6823 3.18744 13.2106 4.94453 13.2106C10.6709 13.2106 13.8013 8.35227 13.8013 4.13809C13.8013 3.99941 13.7986 3.86073 13.7932 3.72479C14.4015 3.275 14.9296 2.7139 15.3455 2.07434Z" fill="white"/>
</svg>
