<svg width="23" height="20" viewBox="0 0 23 20" fill="none" xmlns="http://www.w3.org/2000/svg">
<path d="M13.9656 11.5C14.0256 11.005 14.0706 10.51 14.0706 10C14.0706 9.49 14.0256 8.995 13.9656 8.5H16.5006C16.6206 8.98 16.6956 9.4825 16.6956 10C16.6956 10.5175 16.6206 11.02 16.5006 11.5H13.9656ZM12.6381 15.67C13.0881 14.8375 13.4331 13.9375 13.6731 13H15.8856C15.1656 14.2375 14.0181 15.1975 12.6381 15.67ZM12.4506 11.5H8.94056C8.86556 11.005 8.82056 10.51 8.82056 10C8.82056 9.49 8.86556 8.9875 8.94056 8.5H12.4506C12.5181 8.9875 12.5706 9.49 12.5706 10C12.5706 10.51 12.5181 11.005 12.4506 11.5ZM10.6956 15.97C10.0731 15.07 9.57056 14.0725 9.26306 13H12.1281C11.8206 14.0725 11.3181 15.07 10.6956 15.97ZM7.69556 7H5.50556C6.21806 5.755 7.37306 4.795 8.74556 4.33C8.29556 5.1625 7.95806 6.0625 7.69556 7ZM5.50556 13H7.69556C7.95806 13.9375 8.29556 14.8375 8.74556 15.67C7.37306 15.1975 6.21806 14.2375 5.50556 13ZM4.89056 11.5C4.77056 11.02 4.69556 10.5175 4.69556 10C4.69556 9.4825 4.77056 8.98 4.89056 8.5H7.42556C7.36556 8.995 7.32056 9.49 7.32056 10C7.32056 10.51 7.36556 11.005 7.42556 11.5H4.89056ZM10.6956 4.0225C11.3181 4.9225 11.8206 5.9275 12.1281 7H9.26306C9.57056 5.9275 10.0731 4.9225 10.6956 4.0225ZM15.8856 7H13.6731C13.4331 6.0625 13.0881 5.1625 12.6381 4.33C14.0181 4.8025 15.1656 5.755 15.8856 7ZM10.6956 2.5C6.54806 2.5 3.19556 5.875 3.19556 10C3.19556 11.9891 3.98573 13.8968 5.39226 15.3033C6.0887 15.9997 6.91549 16.5522 7.82543 16.9291C8.73537 17.306 9.71064 17.5 10.6956 17.5C12.6847 17.5 14.5923 16.7098 15.9989 15.3033C17.4054 13.8968 18.1956 11.9891 18.1956 10C18.1956 9.01509 18.0016 8.03982 17.6247 7.12987C17.2477 6.21993 16.6953 5.39314 15.9989 4.6967C15.3024 4.00026 14.4756 3.44781 13.5657 3.0709C12.6557 2.69399 11.6805 2.5 10.6956 2.5Z" fill="#C2C2C2"/>
</svg>
