<svg width="60" height="60" viewBox="0 0 60 60" fill="none" xmlns="http://www.w3.org/2000/svg">
<rect width="60" height="60" rx="8" fill="url(#paint0_linear)"/>
<g clip-path="url(#clip0)">
<path d="M29.0112 27.6144C27.6794 29.8532 26.4035 32.0213 25.1009 34.173C24.7664 34.7254 24.6008 35.1754 24.8681 35.8776C25.6059 37.8174 24.5651 39.7052 22.6089 40.2176C20.7641 40.7009 18.9667 39.4885 18.6007 37.5134C18.2764 35.7652 19.633 34.0515 21.5606 33.7782C21.722 33.7551 21.8869 33.7525 22.1583 33.7322L25.0903 28.8157C23.2462 26.982 22.1486 24.8387 22.3915 22.1827C22.5632 20.3052 23.3016 18.6827 24.6509 17.3529C27.2354 14.8063 31.1784 14.394 34.2216 16.3486C37.1442 18.2262 38.4828 21.8834 37.3418 25.0136C36.4815 24.7804 35.6151 24.5451 34.6628 24.2868C35.021 22.5464 34.756 20.9837 33.5823 19.6448C32.8068 18.7609 31.8116 18.2976 30.6802 18.1269C28.4117 17.7842 26.1846 19.2415 25.5237 21.4681C24.7736 23.9948 25.9089 26.0591 29.0112 27.6145V27.6144Z" fill="white"/>
<path d="M32.8141 24.9686C33.7524 26.6238 34.7051 28.3041 35.6493 29.9689C40.4217 28.4924 44.0199 31.1342 45.3108 33.9627C46.87 37.3793 45.8041 41.4259 42.7419 43.5338C39.5989 45.6975 35.6239 45.3279 32.8392 42.5483C33.5489 41.9542 34.2621 41.3575 35.0242 40.7199C37.7746 42.5014 40.1803 42.4175 41.9662 40.308C43.4892 38.5083 43.4562 35.825 41.889 34.0632C40.0805 32.0301 37.658 31.9681 34.7298 33.9197C33.5151 31.7647 32.2794 29.627 31.1031 27.4564C30.7064 26.7249 30.2686 26.3004 29.3746 26.1456C27.8818 25.8868 26.918 24.6048 26.8601 23.1686C26.8033 21.7481 27.6401 20.4642 28.9481 19.9639C30.2437 19.4683 31.7642 19.8683 32.6357 20.9699C33.3479 21.8699 33.5742 22.8829 33.1994 23.9929C33.0953 24.3024 32.9603 24.6019 32.8141 24.9687V24.9686Z" fill="white"/>
<path d="M35.0568 38.4988H29.3116C28.761 40.7638 27.5715 42.5924 25.5221 43.7552C23.9288 44.659 22.2117 44.9654 20.3841 44.6703C17.019 44.1276 14.2676 41.0984 14.0253 37.6874C13.7512 33.8233 16.4071 30.3887 19.9472 29.6172C20.1916 30.5048 20.4387 31.4009 20.6831 32.2863C17.435 33.9435 16.3108 36.0314 17.2199 38.6423C18.0201 40.9399 20.2932 42.1992 22.7613 41.7122C25.2818 41.2149 26.5526 39.1202 26.3975 35.7584C28.7869 35.7584 31.1784 35.7337 33.5681 35.7706C34.5013 35.7853 35.2216 35.6885 35.9246 34.8658C37.0819 33.5122 39.2121 33.6343 40.4586 34.9128C41.7324 36.2193 41.6714 38.3216 40.3234 39.573C39.0228 40.7806 36.9682 40.7161 35.7513 39.4149C35.5013 39.1468 35.3042 38.8283 35.0568 38.4988Z" fill="white"/>
</g>
<defs>
<linearGradient id="paint0_linear" x1="40.1963" y1="54.6185" x2="13.2" y2="3.6" gradientUnits="userSpaceOnUse">
<stop stop-color="#2C72E5"/>
<stop offset="1" stop-color="#2C72E5" stop-opacity="0.68"/>
</linearGradient>
<clipPath id="clip0">
<rect width="32.145" height="30" fill="white" transform="translate(14 15)"/>
</clipPath>
</defs>
</svg>
