<svg width="20" height="20" viewBox="0 0 20 20" fill="none" xmlns="http://www.w3.org/2000/svg">
<path d="M16.4645 9.79313C16.4645 9.76039 16.4645 9.72319 16.463 9.68004C16.4615 9.5595 16.4585 9.42409 16.4556 9.27974C16.4437 8.86456 16.4229 8.45088 16.3902 8.061C16.3456 7.5238 16.2802 7.07588 16.1911 6.73957C16.097 6.38861 15.9125 6.06852 15.6562 5.8113C15.3999 5.55408 15.0806 5.36874 14.7303 5.27381C14.3097 5.16071 13.4865 5.09077 12.3274 5.04762C11.7761 5.02679 11.1861 5.01339 10.5962 5.00595C10.3896 5.00298 10.1979 5.00149 10.0255 5H9.58863C9.41625 5.00149 9.22455 5.00298 9.01799 5.00595C8.42804 5.01339 7.83808 5.02679 7.28677 5.04762C6.12766 5.09226 5.30292 5.1622 4.88386 5.27381C4.53345 5.36851 4.21406 5.55377 3.95768 5.81103C3.7013 6.06828 3.51695 6.38849 3.42309 6.73957C3.33244 7.07588 3.26854 7.5238 3.22396 8.061C3.19127 8.45088 3.17046 8.86456 3.15857 9.27974C3.15412 9.42409 3.15263 9.5595 3.15114 9.68004C3.15114 9.72319 3.14966 9.76039 3.14966 9.79313V9.87646C3.14966 9.9092 3.14966 9.9464 3.15114 9.98956C3.15263 10.1101 3.1556 10.2455 3.15857 10.3899C3.17046 10.805 3.19127 11.2187 3.22396 11.6086C3.26854 12.1458 3.33393 12.5937 3.42309 12.93C3.6133 13.6428 4.17205 14.2053 4.88386 14.3958C5.30292 14.5089 6.12766 14.5788 7.28677 14.622C7.83808 14.6428 8.42804 14.6562 9.01799 14.6636C9.22455 14.6666 9.41625 14.6681 9.58863 14.6696H10.0255C10.1979 14.6681 10.3896 14.6666 10.5962 14.6636C11.1861 14.6562 11.7761 14.6428 12.3274 14.622C13.4865 14.5773 14.3112 14.5074 14.7303 14.3958C15.4421 14.2053 16.0008 13.6443 16.1911 12.93C16.2817 12.5937 16.3456 12.1458 16.3902 11.6086C16.4229 11.2187 16.4437 10.805 16.4556 10.3899C16.46 10.2455 16.4615 10.1101 16.463 9.98956C16.463 9.9464 16.4645 9.9092 16.4645 9.87646V9.79313ZM15.3945 9.87051C15.3945 9.90176 15.3945 9.93599 15.3931 9.97617C15.3916 10.0922 15.3886 10.2202 15.3856 10.3586C15.3752 10.7544 15.3544 11.1503 15.3232 11.5178C15.2831 11.997 15.2266 12.3898 15.1568 12.6532C15.0646 12.997 14.7942 13.2693 14.4524 13.3601C14.1403 13.4434 13.3542 13.5104 12.2858 13.5506C11.7449 13.5714 11.1623 13.5848 10.5813 13.5922C10.3777 13.5952 10.189 13.5967 10.0196 13.5967H9.59457L9.03285 13.5922C8.45181 13.5848 7.87078 13.5714 7.32838 13.5506C6.25992 13.5089 5.47232 13.4434 5.16174 13.3601C4.81996 13.2678 4.5495 12.997 4.45736 12.6532C4.38752 12.3898 4.33105 11.997 4.29093 11.5178C4.25972 11.1503 4.2404 10.7544 4.22852 10.3586C4.22406 10.2202 4.22257 10.0907 4.22109 9.97617C4.22109 9.93599 4.2196 9.90027 4.2196 9.87051V9.79908C4.2196 9.76783 4.2196 9.73361 4.22109 9.69343C4.22257 9.57736 4.22554 9.44938 4.22852 9.31099C4.23892 8.91516 4.25972 8.51933 4.29093 8.15177C4.33105 7.67261 4.38752 7.27975 4.45736 7.01636C4.5495 6.67261 4.81996 6.40029 5.16174 6.30952C5.47381 6.22618 6.25992 6.15922 7.32838 6.11904C7.86929 6.09821 8.45181 6.08482 9.03285 6.07738C9.23644 6.0744 9.42516 6.07291 9.59457 6.07291H10.0196L10.5813 6.07738C11.1623 6.08482 11.7434 6.09821 12.2858 6.11904C13.3542 6.16071 14.1418 6.22618 14.4524 6.30952C14.7942 6.40178 15.0646 6.67261 15.1568 7.01636C15.2266 7.27975 15.2831 7.67261 15.3232 8.15177C15.3544 8.51933 15.3737 8.91516 15.3856 9.31099C15.3901 9.44938 15.3916 9.57885 15.3931 9.69343C15.3931 9.73361 15.3945 9.76932 15.3945 9.79908V9.87051ZM8.48451 11.8288L11.9321 9.81992L8.48451 7.84076V11.8288Z" fill="#111111"/>
</svg>
